<svg xmlns="http://www.w3.org/2000/svg" xmlns:xlink="http://www.w3.org/1999/xlink" xmlns:lucid="lucid" width="2101" height="1561"><g transform="translate(20.5 340.5)" lucid:page-tab-id="0_0"><path d="M250.45 65.8A7.8 7.8 0 0 1 258 60h116a4.6 4.6 0 0 1 4.45 5.8l-28.9 108.4A7.8 7.8 0 0 1 342 180H226a4.6 4.6 0 0 1-4.45-5.8z" stroke="#3a414a" fill="#fff0fb"/><use xlink:href="#a" transform="matrix(1,0,0,1,225,65) translate(41.307469135802464 59.02777777777778)"/><path d="M250.45 225.8A7.8 7.8 0 0 1 258 220h116a4.6 4.6 0 0 1 4.45 5.8l-28.9 108.4A7.8 7.8 0 0 1 342 340H226a4.6 4.6 0 0 1-4.45-5.8z" stroke="#3a414a" fill="#fff0fb"/><use xlink:href="#b" transform="matrix(1,0,0,1,225,225) translate(38.221049382716046 59.02777777777778)"/><path d="M100 66a6 6 0 0 1 6-6h68a6 6 0 0 1 6 6v268a6 6 0 0 1-6 6h-68a6 6 0 0 1-6-6z" fill="none"/><path d="M180 340c-5.52 0-10-4.48-10-10V210c0-5.52-4.48-10-10-10 5.52 0 10-4.48 10-10V70c0-5.52 4.48-10 10-10" stroke="#3a414a" fill="none"/><use xlink:href="#c" transform="matrix(1,0,0,1,105,65) translate(-38.33333333333333 112.77777777777777)"/><use xlink:href="#d" transform="matrix(1,0,0,1,105,65) translate(-63.51851851851852 139.44444444444446)"/><use xlink:href="#e" transform="matrix(1,0,0,1,105,65) translate(-17.222222222222214 166.11111111111111)"/><path d="M365.02 120h38.1" stroke="#3a414a" fill="none"/><path d="M365.03 120.5h-.65l.27-1h.38z" stroke="#3a414a" stroke-width=".05" fill="#3a414a"/><path d="M417.88 120l-14.26 4.64v-9.28z" stroke="#3a414a" fill="#3a414a"/><path d="M420 66a6 6 0 0 1 6-6h148a6 6 0 0 1 6 6v108a6 6 0 0 1-6 6H426a6 6 0 0 1-6-6z" stroke="#3a414a" fill="#e3fae3"/><path d="M436 60v120M564 60v120" stroke="#3a414a" fill="none"/><use xlink:href="#f" transform="matrix(1,0,0,1,445,65) translate(33.45679012345679 59.44444444444444)"/><path d="M581 120h53a6 6 0 0 1 6 6v68a6 6 0 0 0 6 6h37.12" stroke="#3a414a" fill="none"/><path d="M581 120.5h-.5v-1h.5z" stroke="#3a414a" stroke-width=".05" fill="#3a414a"/><path d="M697.88 200l-14.26 4.63v-9.26z" stroke="#3a414a" fill="#3a414a"/><path d="M700 146a6 6 0 0 1 6-6h148a6 6 0 0 1 6 6v108a6 6 0 0 1-6 6H706a6 6 0 0 1-6-6z" stroke="#3a414a" fill="#e3fae3"/><path d="M716 140v120m128-120v120" stroke="#3a414a" fill="none"/><use xlink:href="#g" transform="matrix(1,0,0,1,725,145) translate(11.574074074074076 59.44444444444444)"/><use xlink:href="#h" transform="matrix(1,0,0,1,725,145) translate(54.043209876543216 59.44444444444444)"/><path d="M861 200h42.12" stroke="#3a414a" fill="none"/><path d="M861 200.5h-.5v-1h.5z" stroke="#3a414a" stroke-width=".05" fill="#3a414a"/><path d="M917.88 200l-14.26 4.63v-9.26z" stroke="#3a414a" fill="#3a414a"/><path d="M920 146a6 6 0 0 1 6-6h268a6 6 0 0 1 6 6v108a6 6 0 0 1-6 6H926a6 6 0 0 1-6-6z" stroke="#3a414a" fill="#e3fae3"/><path d="M948 140v120m224-120v120" stroke="#3a414a" fill="none"/><use xlink:href="#i" transform="matrix(1,0,0,1,960,145) translate(70.49382716049382 46.111111111111114)"/><use xlink:href="#j" transform="matrix(1,0,0,1,960,145) translate(2.716049382716065 72.77777777777777)"/><path d="M420 226a6 6 0 0 1 6-6h148a6 6 0 0 1 6 6v108a6 6 0 0 1-6 6H426a6 6 0 0 1-6-6z" stroke="#3a414a" fill="#e3fae3"/><path d="M436 220v120m128-120v120" stroke="#3a414a" fill="none"/><use xlink:href="#f" transform="matrix(1,0,0,1,445,225) translate(33.45679012345679 59.44444444444444)"/><path d="M365.02 280h38.1" stroke="#3a414a" fill="none"/><path d="M365.03 280.5h-.65l.27-1h.38z" stroke="#3a414a" stroke-width=".05" fill="#3a414a"/><path d="M417.88 280l-14.26 4.63v-9.26z" stroke="#3a414a" fill="#3a414a"/><path d="M581 280h53a6 6 0 0 0 6-6v-68a6 6 0 0 1 6-6h37.12" stroke="#3a414a" fill="none"/><path d="M581 280.5h-.5v-1h.5z" stroke="#3a414a" stroke-width=".05" fill="#3a414a"/><path d="M697.88 200l-14.26 4.63v-9.26z" stroke="#3a414a" fill="#3a414a"/><path d="M580-154a6 6 0 0 1 6-6h132a6 6 0 0 1 6 6v78.3c-24.05-14.08-39.02-14.08-48.1-14.08-14.4 0-33.55 14.08-47.95 14.08-8.93 0-24.05 0-47.95-14.08z" stroke="#3a414a" fill="#edf5ff"/><path d="M588-146.56a6 6 0 0 1 6-6h132a6 6 0 0 1 6 6v78.3c-24.05-14.08-39.02-14.08-48.1-14.08-14.4 0-33.55 14.07-47.95 14.07-8.93 0-24.05 0-47.95-14.07z" stroke="#3a414a" fill="#edf5ff"/><path d="M596-139.12a6 6 0 0 1 6-6h132a6 6 0 0 1 6 6v78.3c-24.05-14.1-39.02-14.1-48.1-14.1-14.4.02-33.55 14.1-47.95 14.1-8.93 0-24.05 0-47.95-14.1z" stroke="#3a414a" fill="#edf5ff"/><use xlink:href="#k" transform="matrix(1,0,0,1,601,-140.12418375303628) translate(2.864197530864203 34.94444444444444)"/><path d="M581 84.02h5.6m5.58 0h11.17m5.6 0h5.58l.94-.07.9-.22.88-.36.8-.5.72-.6.62-.72.48-.8.36-.88.22-.9.07-.95v-5.2m0-5.23V57.16m0-5.2V41.52m0-5.2V25.88m0-5.22V10.26m0-5.22V-5.38m0-5.22v-10.42m0-5.2v-10.44m0-5.2v-5.22" stroke="#3a414a" fill="none"/><path d="M581 84.52h-.5v-1h.5z" stroke="#3a414a" stroke-width=".05" fill="#3a414a"/><path d="M620.53-61.85l4.64 14.27h-9.27z" stroke="#3a414a" fill="#3a414a"/><path d="M581 240.92h5.6m5.58 0h11.17m5.6 0h5.58l.94-.07.9-.22.88-.36.8-.5.72-.6.62-.72.48-.8.36-.88.22-.9.07-.95v-4.95m0-4.94v-9.9m0-4.95v-9.9m0-4.94v-9.9m0-4.94v-9.9m0-4.94v-9.9m0-4.95v-9.88m0-4.95v-9.9m0-4.94v-9.9m0-4.94v-9.9m0-4.96v-9.9m0-4.94v-9.9m0-4.94v-9.9m0-4.94v-9.9m0-4.95v-9.9m0-4.94v-9.9m0-4.94v-9.9m0-4.95v-9.9m0-4.94v-9.9m0-4.94v-4.94" stroke="#3a414a" fill="none"/><path d="M581 241.42h-.5v-1h.5z" stroke="#3a414a" stroke-width=".05" fill="#3a414a"/><path d="M620.53-61.85l4.64 14.27h-9.27z" stroke="#3a414a" fill="#3a414a"/><path d="M874.9-316.84a9.68 9.68 0 0 1 10.2 0l69.8 43.26a3.72 3.72 0 0 1 0 6.33L885.1-224a9.68 9.68 0 0 1-10.2 0l-69.8-43.25a3.72 3.72 0 0 1 0-6.32z" stroke="#3a414a" fill="#fff3d9"/><use xlink:href="#l" transform="matrix(1,0,0,1,805,-315) translate(54.69635802469136 37.46527777777778)"/><use xlink:href="#m" transform="matrix(1,0,0,1,805,-315) translate(44.17166666666666 64.13194444444446)"/><path d="M741-110.33h24.67a6 6 0 0 0 6-6v-148a6 6 0 0 1 6-6h8.8" stroke="#3a414a" fill="none"/><path d="M741-109.83h-.5v-1h.5z" stroke="#3a414a" stroke-width=".05" fill="#3a414a"/><path d="M801.23-270.33l-14.27 4.63v-9.27z" stroke="#3a414a" fill="#3a414a"/><path d="M1020-314a6 6 0 0 1 6-6h148a6 6 0 0 1 6 6v87.17a6 6 0 0 1-6 6h-148a6 6 0 0 1-6-6z" stroke="#3a414a" fill="#ffd9d9"/><use xlink:href="#n" transform="matrix(1,0,0,1,1032,-308) translate(43.37037037037037 29.65277777777778)"/><use xlink:href="#o" transform="matrix(1,0,0,1,1032,-308) translate(15.716049382716044 56.31944444444445)"/><path d="M975.54-269.4h-17.38v-2h17.38z" stroke="#008a0e" stroke-width=".05" fill="#008a0e"/><path d="M958.2-269.4h-1.17l.05-.16.08-.85-.08-.87-.05-.14h1.16z" fill="#008a0e"/><path d="M958.2-269.4H957l.05-.17.1-.84-.1-.86-.05-.18h1.2zm-1.14-2l.04.13.1.86-.1.84-.04.12h1.1v-1.95z" stroke="#008a0e" stroke-width=".05" fill="#008a0e"/><path d="M1016.26-270.4L1002-265.8v-9.27z" fill="#008a0e"/><path d="M1019.5-270.4l-18.38 5.96v-11.95zm-16.5 3.25l10.03-3.26-10.03-3.27z" stroke="#008a0e" stroke-width=".05" fill="#008a0e"/><use xlink:href="#p" transform="matrix(1,0,0,1,975.5411085334964,-281.08061251012094) translate(0 14.222222222222223)"/><path d="M1201 200h42.12" stroke="#3a414a" fill="none"/><path d="M1201 200.5h-.5v-1h.5z" stroke="#3a414a" stroke-width=".05" fill="#3a414a"/><path d="M1257.88 200l-14.26 4.63v-9.26z" stroke="#3a414a" fill="#3a414a"/><path d="M1260 146a6 6 0 0 1 6-6h208a6 6 0 0 1 6 6v108a6 6 0 0 1-6 6h-208a6 6 0 0 1-6-6z" stroke="#3a414a" fill="#e3fae3"/><path d="M1282 140v120m176-120v120" stroke="#3a414a" fill="none"/><use xlink:href="#i" transform="matrix(1,0,0,1,1292.5,145) translate(47.99382716049383 46.111111111111114)"/><use xlink:href="#q" transform="matrix(1,0,0,1,1292.5,145) translate(1.2037037037037237 72.77777777777777)"/><path d="M1481 200h42.12" stroke="#3a414a" fill="none"/><path d="M1481 200.5h-.5v-1h.5z" stroke="#3a414a" stroke-width=".05" fill="#3a414a"/><path d="M1537.88 200l-14.26 4.63v-9.26z" stroke="#3a414a" fill="#3a414a"/><path d="M1540 146a6 6 0 0 1 6-6h148a6 6 0 0 1 6 6v108a6 6 0 0 1-6 6h-148a6 6 0 0 1-6-6z" stroke="#3a414a" fill="#e3fae3"/><path d="M1556 140v120m128-120v120" stroke="#3a414a" fill="none"/><use xlink:href="#i" transform="matrix(1,0,0,1,1565,145) translate(25.49382716049383 46.111111111111114)"/><use xlink:href="#r" transform="matrix(1,0,0,1,1565,145) translate(-1.728395061728392 72.77777777777777)"/><path d="M1684 479.5c8.84 0 16 26.86 16 60s-7.16 60-16 60h-128c-8.84 0-16-26.86-16-60s7.16-60 16-60z" stroke="#3a414a" fill="#edf5ff"/><path d="M1684 599.5c-8.84 0-16-26.86-16-60s7.16-60 16-60" stroke="#3a414a" fill="none"/><use xlink:href="#s" transform="matrix(1,0,0,1,1545,484.5000499999999) translate(0.7592592592592595 59.02777777777778)"/><use xlink:href="#t" transform="matrix(1,0,0,1,1545,484.5000499999999) translate(58.04320987654321 59.02777777777778)"/><path d="M1620 261v201.62" stroke="#3a414a" fill="none"/><path d="M1620.5 261h-1v-.5h1z" stroke="#3a414a" stroke-width=".05" fill="#3a414a"/><path d="M1620 477.38l-4.63-14.26h9.27z" stroke="#3a414a" fill="#3a414a"/><path d="M1539 539.5h-42.12" stroke="#3a414a" fill="none"/><path d="M1539.5 539.5l.02.5h-.53v-1h.52z" stroke="#3a414a" stroke-width=".05" fill="#3a414a"/><path d="M1482.12 539.5l14.26-4.63v9.26z" stroke="#3a414a" fill="#3a414a"/><path d="M1260 485.5a6 6 0 0 1 6-6h208a6 6 0 0 1 6 6v108a6 6 0 0 1-6 6h-208a6 6 0 0 1-6-6z" stroke="#3a414a" fill="#e3fae3"/><path d="M1282 479.5v120m176-120v120" stroke="#3a414a" fill="none"/><use xlink:href="#i" transform="matrix(1,0,0,1,1292.5,484.5000499999999) translate(47.99382716049383 46.111111111111114)"/><use xlink:href="#u" transform="matrix(1,0,0,1,1292.5,484.5000499999999) translate(4.228395061728406 72.77777777777777)"/><path d="M885 483.66a9 9 0 0 1 10 0L975 537a4 4 0 0 1 0 6.66L895 597a9 9 0 0 1-10 0l-80-53.34a4 4 0 0 1 0-6.66z" stroke="#3a414a" fill="#fff3d9"/><use xlink:href="#v" transform="matrix(1,0,0,1,805,485.3279416869084) translate(20.313641975308652 59.02777777777778)"/><path d="M1259 539.5h-28.6a.4.4 0 0 0-.4.4.4.4 0 0 1-.4.43h-12.72" stroke="#3a414a" fill="none"/><path d="M1259.5 540h-.5v-1h.5z" stroke="#3a414a" stroke-width=".05" fill="#3a414a"/><path d="M1202.12 540.33l14.26-4.64v9.26z" stroke="#3a414a" fill="#3a414a"/><path d="M1184 480.33c8.84 0 16 26.86 16 60 0 33.13-7.16 60-16 60h-128c-8.84 0-16-26.87-16-60 0-33.14 7.16-60 16-60z" stroke="#3a414a" fill="#cfe4ff"/><path d="M1184 600.33c-8.84 0-16-26.87-16-60 0-33.14 7.16-60 16-60" stroke="#3a414a" fill="none"/><use xlink:href="#w" transform="matrix(1,0,0,1,1045,485.3279416869084) translate(25.111111111111114 59.02777777777778)"/><path d="M742.6 534.3l.07.8.18.77.3.73.4.66.52.6.6.5.67.42.72.3.76.18.82.07h54.07v2h-54.13l-1.06-.1-1.06-.24-1.02-.43-.93-.58-.85-.72-.7-.84-.6-.93-.4-1-.26-1.08-.1-1.05v-33.54h2zm-5.9-95.22l1.07.26 1 .42.95.57.84.72.7.83.58.94.42 1.02.26 1.06.1 1.06v33.54h-2v-33.46l-.08-.82-.18-.76-.3-.73-.4-.67-.52-.6-.6-.5-.67-.4-.72-.3-.76-.2-.83-.06H699v-2h36.64z" stroke="#008a0e" stroke-width=".05" fill="#008a0e"/><path d="M802.8 539.45l-.1.88.1.88.03.13h-1.15v-2h1.15z" fill="#008a0e"/><path d="M802.82 539.45l-.1.88.1.87.05.15h-1.2v-2.05h1.2zm-1.1-.1v1.95h1.08l-.03-.1-.1-.87.1-.9.03-.08z" stroke="#008a0e" stroke-width=".05" fill="#008a0e"/><path d="M698 444.63L683.74 440l14.26-4.63z" fill="#008a0e"/><path d="M699 446l-18.5-6 18.5-6zm-12.03-6l10.03 3.26v-6.52z" stroke="#008a0e" stroke-width=".05" fill="#008a0e"/><use xlink:href="#p" transform="matrix(1,0,0,1,728.8143952540211,479.4973041767875) translate(0 14.222222222222223)"/><path d="M395.93 541.33h-279.9l-.8.06-.77.18-.73.3-.67.4-.6.5-.5.6-.4.68-.3.72-.2.77-.06.82V621h-2v-74.7l.08-1.07.26-1.07.42-1 .57-.95.72-.82.83-.72.94-.57 1.02-.43 1.06-.26 1.06-.07h279.97zm405.78 0H417.6v-2h384.1z" stroke="#e81313" stroke-width=".05" fill="#e81313"/><path d="M802.8 539.45l-.1.88.1.88.03.13h-1.15v-2h1.15z" fill="#e81313"/><path d="M802.82 539.45l-.1.88.1.87.05.15h-1.2v-2.05h1.2zm-1.1-.1v1.95h1.08l-.03-.1-.1-.87.1-.9.03-.08z" stroke="#e81313" stroke-width=".05" fill="#e81313"/><path d="M110 636.26L105.36 622h9.28z" fill="#e81313"/><path d="M110 639.5l-6-18.5h12zm-3.26-16.5l3.26 10.03 3.26-10.03z" stroke="#e81313" stroke-width=".05" fill="#e81313"/><use xlink:href="#x" transform="matrix(1,0,0,1,395.92880245249256,529.6612750202418) translate(0 14.222222222222223)"/><path d="M1039 540.33h-45.33" stroke="#3a414a" fill="none"/><path d="M1039.5 540.33l.02.5h-.53v-1h.52z" stroke="#3a414a" stroke-width=".05" fill="#3a414a"/><path d="M978.9 540.33l14.27-4.64v9.26z" stroke="#3a414a" fill="#3a414a"/><path d="M560 386a6 6 0 0 1 6-6h54c33.14 0 60 26.86 60 60s-26.86 60-60 60h-54a6 6 0 0 1-6-6z" stroke="#3a414a" fill="#dfe3e8"/><use xlink:href="#y" transform="matrix(1,0,0,1,565,385) translate(19.493827160493822 45.27777777777778)"/><use xlink:href="#z" transform="matrix(1,0,0,1,565,385) translate(66.34567901234567 45.27777777777778)"/><use xlink:href="#A" transform="matrix(1,0,0,1,565,385) translate(20.611111111111114 71.94444444444446)"/><path d="M559 440h-42.12" stroke="#3a414a" fill="none"/><path d="M559.5 440.5h-.5v-1h.5z" stroke="#3a414a" stroke-width=".05" fill="#3a414a"/><path d="M502.12 440l14.26-4.63v9.26z" stroke="#3a414a" fill="#3a414a"/><path d="M300 386a6 6 0 0 1 6-6h188a6 6 0 0 1 6 6v108a6 6 0 0 1-6 6H306a6 6 0 0 1-6-6z" stroke="#3a414a" fill="#e3fae3"/><path d="M320 380v120m160-120v120" stroke="#3a414a" fill="none"/><use xlink:href="#i" transform="matrix(1,0,0,1,330,385) translate(40.49382716049383 46.111111111111114)"/><use xlink:href="#B" transform="matrix(1,0,0,1,330,385) translate(-4.598765432098759 72.77777777777777)"/><path d="M0 646a6 6 0 0 1 6-6h208a6 6 0 0 1 6 6v108a6 6 0 0 1-6 6H6a6 6 0 0 1-6-6z" stroke="#3a414a" fill="#e3fae3"/><path d="M22 640v120m176-120v120" stroke="#3a414a" fill="none"/><use xlink:href="#i" transform="matrix(1,0,0,1,32.5,645) translate(47.99382716049383 46.111111111111114)"/><use xlink:href="#C" transform="matrix(1,0,0,1,32.5,645) translate(0.49382716049382225 72.77777777777777)"/><path d="M299 440H116a6 6 0 0 0-6 6v177.12" stroke="#3a414a" fill="none"/><path d="M299.5 440.5h-.5v-1h.5z" stroke="#3a414a" stroke-width=".05" fill="#3a414a"/><path d="M110 637.88l-4.64-14.26h9.28z" stroke="#3a414a" fill="#3a414a"/><path d="M1234.86 823.4a10 10 0 0 1 10.3 0l89.7 53.84a3.6 3.6 0 0 1 0 6.17l-89.7 53.84a10 10 0 0 1-10.3 0l-89.7-53.83a3.6 3.6 0 0 1-.02-6.16z" stroke="#3a414a" fill="#fff3d9"/><use xlink:href="#D" transform="matrix(1,0,0,1,1144.999978039608,825.3279416869082) translate(26.795123456790133 59.02777777777778)"/><use xlink:href="#E" transform="matrix(1,0,0,1,1144.999978039608,825.3279416869082) translate(32.35067901234569 59.02777777777778)"/><use xlink:href="#F" transform="matrix(1,0,0,1,1144.999978039608,825.3279416869082) translate(81.42475308641977 59.02777777777778)"/><path d="M1241 1133.96l.07.82.18.76.3.73.4.67.52.6.6.5.66.4.73.3.76.2.82.06h212.45v2h-212.54l-1.06-.08-1.06-.26-1.02-.42-.94-.57-.83-.72-.72-.83-.57-.94-.42-1.02-.26-1.06-.08-1.06V940.17h2zm640 5.04v2h-400.83v-2z" stroke="#e81313" stroke-width=".05" fill="#e81313"/><path d="M1240 939.17l1-.06v1.1h-2v-1.1z" fill="#e81313"/><path d="M1240 939.14l1.03-.05v1.12h-2.06v-1.13zm-.97 1.03h1.94v-1.03l-.97.05-.97-.06z" stroke="#e81313" stroke-width=".05" fill="#e81313"/><path d="M1896.26 1140l-14.26 4.63v-9.27z" fill="#e81313"/><path d="M1899.5 1140l-18.5 6v-12zm-16.5 3.26l10.03-3.26-10.03-3.26z" stroke="#e81313" stroke-width=".05" fill="#e81313"/><use xlink:href="#x" transform="matrix(1,0,0,1,1458.4937100105956,1129.3333333333333) translate(0 14.222222222222223)"/><path d="M2044 1080c8.84 0 16 26.86 16 60s-7.16 60-16 60h-128c-8.84 0-16-26.86-16-60s7.16-60 16-60z" stroke="#3a414a" fill="#6db1ff"/><path d="M2044 1200c-8.84 0-16-26.86-16-60s7.16-60 16-60" stroke="#3a414a" fill="none"/><use xlink:href="#G" transform="matrix(1,0,0,1,1905,1085) translate(15.327160493827165 59.02777777777778)"/><path d="M1660 726a6 6 0 0 1 6-6h168a6 6 0 0 1 6 6v108a6 6 0 0 1-6 6h-168a6 6 0 0 1-6-6z" stroke="#3a414a" fill="#e3fae3"/><path d="M1678 720v120m144-120v120" stroke="#3a414a" fill="none"/><use xlink:href="#H" transform="matrix(1,0,0,1,1687.5,725) translate(3.981481481481474 59.44444444444444)"/><path d="M1422.9 926a6 6 0 0 1 6-6h168a6 6 0 0 1 6 6v108a6 6 0 0 1-6 6h-168a6 6 0 0 1-6-6z" stroke="#3a414a" fill="#e3fae3"/><path d="M1440.9 920v120m144-120v120" stroke="#3a414a" fill="none"/><use xlink:href="#I" transform="matrix(1,0,0,1,1450.3945506409136,925) translate(31.04938271604938 46.111111111111114)"/><use xlink:href="#J" transform="matrix(1,0,0,1,1450.3945506409136,925) translate(-2.746913580246911 72.77777777777777)"/><path d="M1760 486.33a6 6 0 0 1 6-6h148a6 6 0 0 1 6 6v108a6 6 0 0 1-6 6h-148a6 6 0 0 1-6-6z" stroke="#3a414a" fill="#e3fae3"/><path d="M1776 480.33v120m128-120v120" stroke="#3a414a" fill="none"/><use xlink:href="#K" transform="matrix(1,0,0,1,1785,485.3279416869084) translate(16.790123456790127 59.44444444444444)"/><path d="M1701 539.5h42.12" stroke="#3a414a" fill="none"/><path d="M1701 540h-.52l.02-.5-.02-.5h.53z" stroke="#3a414a" stroke-width=".05" fill="#3a414a"/><path d="M1757.88 539.5l-14.26 4.63v-9.26z" stroke="#3a414a" fill="#3a414a"/><path d="M1840 479.33V-48.3" stroke="#3a414a" fill="none"/><path d="M1840.5 479.83h-1v-.5h1z" stroke="#3a414a" stroke-width=".05" fill="#3a414a"/><path d="M1840-63.05l4.63 14.26h-9.27z" stroke="#3a414a" fill="#3a414a"/><path d="M1760-154a6 6 0 0 1 6-6h132a6 6 0 0 1 6 6v78.3c-24.05-14.08-39.02-14.08-48.1-14.08-14.4 0-33.55 14.08-47.95 14.08-8.93 0-24.05 0-47.95-14.08z" stroke="#3a414a" fill="#edf5ff"/><path d="M1768-146.56a6 6 0 0 1 6-6h132a6 6 0 0 1 6 6v78.3c-24.05-14.08-39.02-14.08-48.1-14.08-14.4 0-33.55 14.07-47.95 14.07-8.93 0-24.05 0-47.95-14.07z" stroke="#3a414a" fill="#edf5ff"/><path d="M1776-139.12a6 6 0 0 1 6-6h132a6 6 0 0 1 6 6v78.3c-24.05-14.1-39.02-14.1-48.1-14.1-14.4.02-33.55 14.1-47.95 14.1-8.93 0-24.05 0-47.95-14.1z" stroke="#3a414a" fill="#edf5ff"/><use xlink:href="#L" transform="matrix(1,0,0,1,1781,-140.12418375303628) translate(14.370370370370367 36.84027777777778)"/><use xlink:href="#M" transform="matrix(1,0,0,1,1781,-140.12418375303628) translate(74.12345679012346 36.84027777777778)"/><path d="M741-110.34H1143" stroke="#3a414a" fill="none"/><path d="M741-109.84h-.5v-1h.5z" stroke="#3a414a" stroke-width=".05" fill="#3a414a"/><path d="M1157.78-110.34l-14.27 4.64v-9.27z" stroke="#3a414a" fill="#3a414a"/><path d="M1123.33-165.34a3.2 3.2 0 0 1 2.67-5h148a3.2 3.2 0 0 1 2.67 5l-73.34 110a4 4 0 0 1-6.66 0z" stroke="#3a414a" fill="#fff"/><use xlink:href="#N" transform="matrix(1,0,0,1,1125,-165.33600478034623) translate(46.30129629629629 59.02777777777778)"/><path d="M1759-110.34H1257" stroke="#3a414a" fill="none"/><path d="M1759.5-109.84h-.5v-1h.5z" stroke="#3a414a" stroke-width=".05" fill="#3a414a"/><path d="M1242.22-110.34l14.27-4.63v9.27z" stroke="#3a414a" fill="#3a414a"/><path d="M1200-52.55v20.5" stroke="#3a414a" fill="none"/><path d="M1200-53.05l.5-.04v.57h-1v-.56z" stroke="#3a414a" stroke-width=".05" fill="#3a414a"/><path d="M1200-17.3l-4.63-14.25h9.27z" stroke="#3a414a" fill="#3a414a"/><path d="M1264-15.17c8.84 0 16 26.87 16 60 0 33.14-7.16 60-16 60h-128c-8.84 0-16-26.86-16-60 0-33.13 7.16-60 16-60z" stroke="#3a414a" fill="#cfe4ff"/><path d="M1264 104.83c-8.84 0-16-26.86-16-60 0-33.13 7.16-60 16-60" stroke="#3a414a" fill="none"/><use xlink:href="#O" transform="matrix(1,0,0,1,1124.999978039608,-10.168002390173115) translate(22.95061728395062 59.02777777777778)"/><use xlink:href="#P" transform="matrix(1,0,0,1,1124.999978039608,-10.168002390173115) translate(59.308641975308646 59.02777777777778)"/><path d="M1841 780h42.12" stroke="#3a414a" fill="none"/><path d="M1841 780.5h-.5v-1h.5z" stroke="#3a414a" stroke-width=".05" fill="#3a414a"/><path d="M1897.88 780l-14.26 4.63v-9.26z" stroke="#3a414a" fill="#3a414a"/><path d="M1603.9 980H1974a6 6 0 0 1 6 6v77.12" stroke="#3a414a" fill="none"/><path d="M1603.9 980.5h-.5v-1h.5z" stroke="#3a414a" stroke-width=".05" fill="#3a414a"/><path d="M1980 1077.88l-4.63-14.26h9.27z" stroke="#3a414a" fill="#3a414a"/><path d="M1900 726a6 6 0 0 1 6-6h148a6 6 0 0 1 6 6v108a6 6 0 0 1-6 6h-148a6 6 0 0 1-6-6zm16-6v120m-16-104h160" stroke="#3a414a" fill="#edf5ff"/><use xlink:href="#Q" transform="matrix(1,0,0,1,1921,741) translate(31.876543209876537 38.34027777777778)"/><use xlink:href="#R" transform="matrix(1,0,0,1,1921,741) translate(31.907407407407405 65.00694444444446)"/><path d="M110 761v42.12" stroke="#3a414a" fill="none"/><path d="M110.5 761h-1v-.5h1z" stroke="#3a414a" stroke-width=".05" fill="#3a414a"/><path d="M110 817.88l-4.64-14.26h9.28z" stroke="#3a414a" fill="#3a414a"/><path d="M0 826a6 6 0 0 1 6-6h208a6 6 0 0 1 6 6v108a6 6 0 0 1-6 6H6a6 6 0 0 1-6-6z" stroke="#3a414a" fill="#e3fae3"/><path d="M22 820v120m176-120v120" stroke="#3a414a" fill="none"/><use xlink:href="#i" transform="matrix(1,0,0,1,32.5,825) translate(47.99382716049383 46.111111111111114)"/><use xlink:href="#S" transform="matrix(1,0,0,1,32.5,825) translate(14.135802469135804 72.77777777777777)"/><path d="M350.45 725.8A7.8 7.8 0 0 1 358 720h116a4.6 4.6 0 0 1 4.45 5.8l-28.9 108.4A7.8 7.8 0 0 1 442 840H326a4.6 4.6 0 0 1-4.45-5.8z" stroke="#3a414a" fill="#edf5ff"/><use xlink:href="#T" transform="matrix(1,0,0,1,325,725) translate(55.165493827160496 59.02777777777778)"/><path d="M350.45 925.8A7.8 7.8 0 0 1 358 920h116a4.6 4.6 0 0 1 4.45 5.8l-28.9 108.4a7.8 7.8 0 0 1-7.55 5.8H326a4.6 4.6 0 0 1-4.45-5.8z" stroke="#3a414a" fill="#edf5ff"/><use xlink:href="#U" transform="matrix(1,0,0,1,325,925) translate(42.32598765432098 59.02777777777778)"/><path d="M221 880h51a6 6 0 0 0 6-6v-88a6 6 0 0 1 6-6h35.1" stroke="#3a414a" fill="none"/><path d="M221 880.5h-.5v-1h.5z" stroke="#3a414a" stroke-width=".05" fill="#3a414a"/><path d="M333.87 780l-14.27 4.63v-9.26z" stroke="#3a414a" fill="#3a414a"/><path d="M221 880h51a6 6 0 0 1 6 6v88a6 6 0 0 0 6 6h35.1" stroke="#3a414a" fill="none"/><path d="M221 880.5h-.5v-1h.5z" stroke="#3a414a" stroke-width=".05" fill="#3a414a"/><path d="M333.87 980l-14.27 4.63v-9.26z" stroke="#3a414a" fill="#3a414a"/><path d="M465.02 780h38.1" stroke="#3a414a" fill="none"/><path d="M465.03 780.5h-.65l.27-1h.38z" stroke="#3a414a" stroke-width=".05" fill="#3a414a"/><path d="M517.88 780l-14.26 4.63v-9.26z" stroke="#3a414a" fill="#3a414a"/><path d="M520 726a6 6 0 0 1 6-6h188a6 6 0 0 1 6 6v108a6 6 0 0 1-6 6H526a6 6 0 0 1-6-6z" stroke="#3a414a" fill="#e3fae3"/><path d="M540 720v120m160-120v120" stroke="#3a414a" fill="none"/><use xlink:href="#i" transform="matrix(1,0,0,1,550,725) translate(40.49382716049383 46.111111111111114)"/><use xlink:href="#V" transform="matrix(1,0,0,1,550,725) translate(-3.2716049382715937 72.77777777777777)"/><path d="M520 926a6 6 0 0 1 6-6h188a6 6 0 0 1 6 6v108a6 6 0 0 1-6 6H526a6 6 0 0 1-6-6z" stroke="#3a414a" fill="#e3fae3"/><path d="M540 920v120m160-120v120" stroke="#3a414a" fill="none"/><use xlink:href="#i" transform="matrix(1,0,0,1,550,925) translate(40.49382716049383 46.111111111111114)"/><use xlink:href="#V" transform="matrix(1,0,0,1,550,925) translate(-3.2716049382715937 72.77777777777777)"/><path d="M465.02 980h38.1" stroke="#3a414a" fill="none"/><path d="M465.03 980.5h-.65l.27-1h.38z" stroke="#3a414a" stroke-width=".05" fill="#3a414a"/><path d="M517.88 980l-14.26 4.63v-9.26z" stroke="#3a414a" fill="#3a414a"/><path d="M780 726a6 6 0 0 1 6-6h148a6 6 0 0 1 6 6v108a6 6 0 0 1-6 6H786a6 6 0 0 1-6-6z" stroke="#3a414a" fill="#e3fae3"/><path d="M796 720v120m128-120v120" stroke="#3a414a" fill="none"/><use xlink:href="#W" transform="matrix(1,0,0,1,805,725) translate(15.648148148148145 59.44444444444444)"/><path d="M780 926a6 6 0 0 1 6-6h148a6 6 0 0 1 6 6v108a6 6 0 0 1-6 6H786a6 6 0 0 1-6-6z" stroke="#3a414a" fill="#e3fae3"/><path d="M796 920v120m128-120v120" stroke="#3a414a" fill="none"/><use xlink:href="#W" transform="matrix(1,0,0,1,805,925) translate(15.648148148148145 59.44444444444444)"/><path d="M721 780h42.12" stroke="#3a414a" fill="none"/><path d="M721 780.5h-.5v-1h.5z" stroke="#3a414a" stroke-width=".05" fill="#3a414a"/><path d="M777.88 780l-14.26 4.63v-9.26z" stroke="#3a414a" fill="#3a414a"/><path d="M721 980h42.12" stroke="#3a414a" fill="none"/><path d="M721 980.5h-.5v-1h.5z" stroke="#3a414a" stroke-width=".05" fill="#3a414a"/><path d="M777.88 980l-14.26 4.63v-9.26z" stroke="#3a414a" fill="#3a414a"/><path d="M984.6 976.24a2.8 2.8 0 0 1-4.6-2.16V786.25a2.8 2.8 0 0 1 4.6-2.17l110.8 92.24a5 5 0 0 1 0 7.68z" stroke="#3a414a" fill="#fff"/><use xlink:href="#N" transform="matrix(6.123233995736766e-17,-1,1,6.123233995736766e-17,985.0000000000002,975.081985421727) translate(66.3012962962963 59.02777777777778)"/><path d="M941 780h17.28a2.08 2.08 0 0 1 2.1 2.08 2.08 2.08 0 0 0 2.07 2.08h1.4" stroke="#3a414a" fill="none"/><path d="M941 780.5h-.5v-1h.5z" stroke="#3a414a" stroke-width=".05" fill="#3a414a"/><path d="M978.6 784.16l-14.25 4.64v-9.27z" stroke="#3a414a" fill="#3a414a"/><path d="M941 980h16.23a2.8 2.8 0 0 0 2.8-2.8 2.8 2.8 0 0 1 2.78-2.78h.35" stroke="#3a414a" fill="none"/><path d="M941 980.5h-.5v-1h.5z" stroke="#3a414a" stroke-width=".05" fill="#3a414a"/><path d="M977.92 974.42l-14.27 4.64v-9.27z" stroke="#3a414a" fill="#3a414a"/><path d="M1098.2 880.16h22a.08.08 0 0 1 .1.1.08.08 0 0 0 .07.07h6.14" stroke="#3a414a" fill="none"/><path d="M1098.2 880.66h-.55l.04-.5-.05-.5h.55z" stroke="#3a414a" stroke-width=".05" fill="#3a414a"/><path d="M1141.28 880.33l-14.27 4.63v-9.27z" stroke="#3a414a" fill="#3a414a"/><path d="M1380.75 973.96l.07.82.18.76.3.73.4.67.52.6.6.5.66.4.73.3.77.2.82.06h18.1v2h-18.2l-1.05-.08-1.06-.26-1.03-.42-.94-.57-.83-.72-.72-.83-.57-.94-.4-1.02-.27-1.06-.08-1.06v-33.2h2zm-5.9-94.55l1.06.27 1.03.42.94.56.83.72.72.83.57.95.4 1 .27 1.08.08 1.06v33.2h-2v-33.13l-.07-.82-.18-.77-.3-.72-.4-.67-.52-.6-.6-.5-.66-.42-.73-.3-.77-.2-.82-.05h-35.6v-2h35.7z" stroke="#008a0e" stroke-width=".05" fill="#008a0e"/><path d="M1338.13 881.33h-1.16l.05-.16.1-.84-.1-.84-.05-.17h1.16z" fill="#008a0e"/><path d="M1338.16 881.35h-1.23l.06-.2.08-.82-.1-.84-.05-.2h1.23zm-1.16-2l.04.13.1.85-.1.84-.04.13h1.1v-1.95z" stroke="#008a0e" stroke-width=".05" fill="#008a0e"/><path d="M1419.16 980l-14.27 4.63v-9.26z" fill="#008a0e"/><path d="M1422.4 980l-18.5 6v-12zm-16.5 3.26l10.02-3.26-10.03-3.26z" stroke="#008a0e" stroke-width=".05" fill="#008a0e"/><g><use xlink:href="#X" transform="matrix(1,0,0,1,1367.9228645061726,919.4973041767876) translate(0 14.222222222222223)"/></g><path d="M1506.48 723.37a8.86 8.86 0 0 1 9.93 0l78.63 53.26a4.07 4.07 0 0 1 0 6.74l-78.62 53.26a8.86 8.86 0 0 1-9.92 0l-78.62-53.26a4.07 4.07 0 0 1 0-6.74z" stroke="#3a414a" fill="#fff3d9"/><g><use xlink:href="#Y" transform="matrix(1,0,0,1,1427.8945506409136,725) translate(59.924753086419756 59.02777777777778)"/></g><path d="M1382.34 874.37l-.08 1.05-.26 1.07-.42 1-.57.94-.7.84-.84.7-.94.6-1.02.4-1.07.26-1.05.1h-37.28v-2h37.2l.82-.08.76-.18.73-.3.68-.4.6-.52.5-.6.4-.66.3-.73.2-.76.06-.8v-33.47h2zm24.73-93.37h-19.7l-.8.07-.77.18-.73.3-.67.4-.6.52-.5.6-.4.66-.3.73-.2.76-.06.82v33.46h-2v-33.54l.08-1.06.26-1.06.42-1.02.57-.94.72-.83.82-.72.94-.57 1.02-.42 1.06-.26 1.06-.08h19.77z" stroke="#008a0e" stroke-width=".05" fill="#008a0e"/><path d="M1338.13 881.33h-1.16l.05-.16.1-.84-.1-.84-.05-.17h1.16z" fill="#008a0e"/><path d="M1338.16 881.35h-1.23l.06-.2.08-.82-.1-.84-.05-.2h1.23zm-1.16-2l.04.13.1.85-.1.84-.04.13h1.1v-1.95z" stroke="#008a0e" stroke-width=".05" fill="#008a0e"/><path d="M1422.34 780l-14.27 4.63v-9.26z" fill="#008a0e"/><path d="M1425.57 780l-18.5 6v-12zm-16.5 3.26l10.03-3.26-10.03-3.26z" stroke="#008a0e" stroke-width=".05" fill="#008a0e"/><g><use xlink:href="#X" transform="matrix(1,0,0,1,1369.5127667322558,819.4973041767876) translate(0 14.222222222222223)"/></g><path d="M1615.62 781h-17.3v-2h17.3z" stroke="#008a0e" stroke-width=".05" fill="#008a0e"/><path d="M1598.35 781h-1.15l.03-.12.1-.88-.1-.88-.03-.12h1.15z" fill="#008a0e"/><path d="M1598.37 781.02h-1.2l.04-.14.1-.88-.1-.88-.04-.14h1.2zm-1.14-2l.03.1.1.88-.1.9-.03.08h1.1V779z" stroke="#008a0e" stroke-width=".05" fill="#008a0e"/><path d="M1656.26 780l-14.26 4.63v-9.26z" fill="#008a0e"/><path d="M1659.5 780l-18.3 5.95v-11.9zm-16.5 3.26l10.03-3.26-10.03-3.26z" stroke="#008a0e" stroke-width=".05" fill="#008a0e"/><g><use xlink:href="#p" transform="matrix(1,0,0,1,1615.6199741375838,769.3333333333334) translate(0 14.222222222222223)"/></g><path d="M1980 841v222.12" stroke="#3a414a" fill="none"/><path d="M1980.5 841h-1v-.5h1z" stroke="#3a414a" stroke-width=".05" fill="#3a414a"/><path d="M1980 1077.88l-4.63-14.26h9.27z" stroke="#3a414a" fill="#3a414a"/><path d="M1290 5h75.98v79.17H1290z" fill="none"/><path d="M1329.96 31.44c-.3-.16-.6-.32-.9-.4-.3-.07-.7-.15-1.07-.15-.4 0-.77.07-1.07.15-.3.07-.6.23-.92.4-.2.23-.37.47-.52.78-.15.32-.23.72-.23 1.27 0 .48.08.87.23 1.2.15.3.3.62.53.78.32.24.62.4.93.47.3.08.68.08 1.06.08.37 0 .75 0 1.05-.08.3-.08.6-.23.9-.47.24-.16.4-.48.55-.8.15-.3.22-.7.22-1.18 0-.55-.07-.95-.22-1.27-.15-.3-.3-.55-.54-.8m-4.48 26.3h5.02V38.48h-5.02v19.23zm2.5 8.94c-11.7 0-21.2-9.9-21.2-22.1 0-12.18 9.5-22.07 21.2-22.07s21.2 9.9 21.2 22.08c0 12.2-9.5 22.1-21.2 22.1m0-47.9c-13.67 0-24.76 11.55-24.76 25.8s11.1 25.8 24.77 25.8 24.76-11.55 24.76-25.8-11.1-25.8-24.77-25.8" fill="#1071e5"/><path d="M1200-305h70v70h-70z" fill="none"/><path d="M1237.94-266.08h-5.88v-17.64l5.88-.07v17.72zm0 7.84h-5.88v-4.9h5.88v4.9zm6.3-34.37h-18.48l-13.37 13.36v18.48l13.36 13.37h18.48l13.37-13.36v-18.48l-13.36-13.37z" fill="#fe7070"/><defs><path fill="#3a414a" d="M199-173c-1 36-21 56-49 65l64 94 26 5v9h-57l-66-103H75v89l35 5v9H13v-9l28-5v-208l-31-4v-10c80 4 190-20 189 63zM75-119c50 2 89-1 89-51 0-49-39-52-89-50v101" id="Z"/><path fill="#3a414a" d="M110-14l48 5v9H32v-9l48-5v-192l-48 17v-10l69-39h9v224" id="aa"/><path fill="#3a414a" d="M45-37c13 0 21 8 21 21C67-2 57 4 45 5 33 4 23-2 24-16c0-13 8-21 21-21" id="ab"/><path fill="#3a414a" d="M103-236c-39-15-35 32-34 71h44v15H69v136l35 6v8H15v-8l25-6v-136H11v-9l29-7c-6-59 23-100 80-84v36c-15 2-12-14-17-22" id="ac"/><path fill="#3a414a" d="M32-163c41-10 102-14 102 39v112c8 3 24-2 21 12h-45l-4-17C83 13 3 13 13-46c-2-50 45-50 92-51 4-36-5-70-42-56-6 2-12 4-16 6-4 7 0 23-15 20v-36zM42-47c0 41 41 33 63 22v-59c-34 1-63-1-63 37" id="ad"/><path fill="#3a414a" d="M41-130c7 48 86 23 86 84 0 56-69 57-112 41v-40c20 0 9 29 31 31 35 19 77-26 41-50-27-18-72-13-72-59 0-50 58-52 100-41v36c-19 1-8-25-28-25-21-7-50-1-46 23" id="ae"/><path fill="#3a414a" d="M13-82c-2-68 46-101 114-84 8-3 15-8 28-7V64l18 4v9h-70v-9l23-4c1-25-2-53 2-75-11 8-27 15-47 15-49-1-66-35-68-86zm113-70c-53-13-86 12-81 70-6 54 34 80 81 61v-131" id="af"/><g id="a"><use transform="matrix(0.06172839506172839,0,0,0.06172839506172839,0,0)" xlink:href="#Z"/><use transform="matrix(0.06172839506172839,0,0,0.06172839506172839,14.814814814814813,0)" xlink:href="#aa"/><use transform="matrix(0.06172839506172839,0,0,0.06172839506172839,25.925925925925924,0)" xlink:href="#ab"/><use transform="matrix(0.06172839506172839,0,0,0.06172839506172839,31.48148148148148,0)" xlink:href="#ac"/><use transform="matrix(0.06172839506172839,0,0,0.06172839506172839,38.82716049382716,0)" xlink:href="#ad"/><use transform="matrix(0.06172839506172839,0,0,0.06172839506172839,48.641975308641975,0)" xlink:href="#ae"/><use transform="matrix(0.06172839506172839,0,0,0.06172839506172839,57.28395061728395,0)" xlink:href="#af"/></g><path fill="#3a414a" d="M24-231c66-21 156 2 128 81C132-92 78-66 39-27h121V0H16v-26l59-54c26-25 47-47 47-97 0-48-47-57-81-37l-6 29H24v-46" id="ag"/><path fill="#3a414a" d="M54-38c-1 25 24 26 44 20v12C71 10 25 9 25-35v-115H4c-2-14 14-10 21-15l18-38h11v38h38v15H54v112" id="ah"/><g id="b"><use transform="matrix(0.06172839506172839,0,0,0.06172839506172839,0,0)" xlink:href="#Z"/><use transform="matrix(0.06172839506172839,0,0,0.06172839506172839,14.814814814814813,0)" xlink:href="#ag"/><use transform="matrix(0.06172839506172839,0,0,0.06172839506172839,25.925925925925924,0)" xlink:href="#ab"/><use transform="matrix(0.06172839506172839,0,0,0.06172839506172839,31.48148148148148,0)" xlink:href="#ac"/><use transform="matrix(0.06172839506172839,0,0,0.06172839506172839,38.82716049382716,0)" xlink:href="#ad"/><use transform="matrix(0.06172839506172839,0,0,0.06172839506172839,48.641975308641975,0)" xlink:href="#ae"/><use transform="matrix(0.06172839506172839,0,0,0.06172839506172839,57.28395061728395,0)" xlink:href="#ah"/><use transform="matrix(0.06172839506172839,0,0,0.06172839506172839,63.456790123456784,0)" xlink:href="#af"/></g><path fill="#3a414a" d="M75-108c48 3 76-12 76-58s-28-57-76-54v112zm111-58c-1 60-46 78-111 74v78l37 5v9H13v-9l28-5v-208l-31-4v-10c81 1 178-14 176 70" id="ai"/><path fill="#3a414a" d="M47-200c-23 0-25-39 0-38 13 0 18 7 20 19-1 11-8 19-20 19zM65-12l28 4v8H8v-8l28-4v-141l-24-4v-8h53v153" id="aj"/><path fill="#3a414a" d="M57-145c16-10 35-24 60-25v45c-19 1-8-30-40-17l-20 6v124l29 4v8H7v-8l21-4v-141c-8-3-24 2-21-12h48" id="ak"/><path fill="#3a414a" d="M13-71v-27h94v27H13" id="al"/><path fill="#3a414a" d="M10-9l31-5v-208l-31-4v-10h177v57h-11l-6-38c-28-4-63-3-95-3v92h63l6-28h11v73h-11l-6-29H75v96l105-3 10-43h12l-3 62H10v-9" id="am"/><path fill="#3a414a" d="M125-118c4-37-41-34-68-26v132l23 4v8H8C5-13 21-9 28-12v-141c-7-3-23 1-20-12h47l2 13c31-23 98-29 98 31v109c7 3 23-1 20 12h-72v-8l22-4v-106" id="an"/><path fill="#3a414a" d="M13-81c0-71 46-101 114-85l-1-72-28-4v-8h57v238c8 3 24-2 21 12h-47l-2-12C80 23 13-1 13-81zm77-74c-37 1-44 33-45 74 0 38 9 66 45 66 14 0 27-3 36-7v-130c-10-1-24-3-36-3" id="ao"/><g id="c"><use transform="matrix(0.06172839506172839,0,0,0.06172839506172839,0,0)" xlink:href="#ai"/><use transform="matrix(0.06172839506172839,0,0,0.06172839506172839,12.345679012345679,0)" xlink:href="#ad"/><use transform="matrix(0.06172839506172839,0,0,0.06172839506172839,22.160493827160494,0)" xlink:href="#aj"/><use transform="matrix(0.06172839506172839,0,0,0.06172839506172839,28.333333333333332,0)" xlink:href="#ak"/><use transform="matrix(0.06172839506172839,0,0,0.06172839506172839,35.24691358024691,0)" xlink:href="#al"/><use transform="matrix(0.06172839506172839,0,0,0.06172839506172839,42.59259259259259,0)" xlink:href="#am"/><use transform="matrix(0.06172839506172839,0,0,0.06172839506172839,56.11111111111111,0)" xlink:href="#an"/><use transform="matrix(0.06172839506172839,0,0,0.06172839506172839,67.22222222222221,0)" xlink:href="#ao"/></g><path fill="#3a414a" d="M178-68c0 79-95 82-154 59v-54h12c1 35 22 52 60 52 50 0 69-58 33-82-39-24-105-21-105-85 0-67 86-66 142-53v49h-12l-6-29c-31-27-121-7-89 42 28 43 119 24 119 101" id="ap"/><path fill="#3a414a" d="M84-170c49 0 66 33 63 87H46c-8 60 38 80 95 63v10C128-2 108 4 88 4 34 4 14-29 14-84c-1-54 22-86 70-86zm33 73c12-57-57-82-69-24-1 7-2 15-2 24h71" id="aq"/><path fill="#3a414a" d="M124-13C89 8 26 15 26-45v-108c-8-3-24 2-21-12h50v118c-3 37 42 32 69 25v-131l-25-4v-8h54v153c8 3 24-2 21 12h-48" id="ar"/><path fill="#3a414a" d="M45-84c0 64 52 80 104 63 1 25-30 25-55 25-56 0-80-32-80-88 0-76 62-98 131-80v46h-10c-5-15-4-31-23-35-47-10-67 21-67 69" id="as"/><path fill="#3a414a" d="M141-152c28 39 5 97-54 97-9 0-20-2-27-3L49-35c29 22 130-14 124 52-4 45-38 57-88 61C21 83-8 26 45-2 33-6 22-15 21-31l28-31c-19-9-28-26-28-51-2-51 53-65 100-52l38-20 7 8zM85 64c35 0 61-11 61-42 0-35-57-17-89-21-9 8-16 19-17 34 0 25 19 29 45 29zM52-113c1 26 7 46 35 44 28-1 34-16 35-44 0-26-6-43-34-43s-36 17-36 43" id="at"/><g id="d"><use transform="matrix(0.06172839506172839,0,0,0.06172839506172839,0,0)" xlink:href="#ap"/><use transform="matrix(0.06172839506172839,0,0,0.06172839506172839,12.345679012345679,0)" xlink:href="#aq"/><use transform="matrix(0.06172839506172839,0,0,0.06172839506172839,22.160493827160494,0)" xlink:href="#af"/><use transform="matrix(0.06172839506172839,0,0,0.06172839506172839,33.27160493827161,0)" xlink:href="#ar"/><use transform="matrix(0.06172839506172839,0,0,0.06172839506172839,44.38271604938272,0)" xlink:href="#aq"/><use transform="matrix(0.06172839506172839,0,0,0.06172839506172839,54.19753086419754,0)" xlink:href="#an"/><use transform="matrix(0.06172839506172839,0,0,0.06172839506172839,65.30864197530865,0)" xlink:href="#as"/><use transform="matrix(0.06172839506172839,0,0,0.06172839506172839,75.12345679012346,0)" xlink:href="#aj"/><use transform="matrix(0.06172839506172839,0,0,0.06172839506172839,81.29629629629629,0)" xlink:href="#an"/><use transform="matrix(0.06172839506172839,0,0,0.06172839506172839,92.4074074074074,0)" xlink:href="#at"/></g><path fill="#3a414a" d="M75-17c87 13 134-18 134-103 0-78-51-106-134-100v203zm171-102C246 5 139 7 10 0v-9l31-5v-208l-31-4v-10h107c82 0 129 35 129 117" id="au"/><path fill="#3a414a" d="M81-9v9H4v-9l26-5 81-224h33l83 224 30 5v9h-99v-9l31-5-23-68H73L49-14zm38-203L78-98h82" id="av"/><path fill="#3a414a" d="M55 0v-9l38-5v-207c-22 1-53 0-70 4l-5 37H7v-56h207v56h-12l-5-37-70-3v206l37 5v9H55" id="aw"/><g id="e"><use transform="matrix(0.06172839506172839,0,0,0.06172839506172839,0,0)" xlink:href="#au"/><use transform="matrix(0.06172839506172839,0,0,0.06172839506172839,15.987654320987653,0)" xlink:href="#av"/><use transform="matrix(0.06172839506172839,0,0,0.06172839506172839,29.50617283950617,0)" xlink:href="#aw"/><use transform="matrix(0.06172839506172839,0,0,0.06172839506172839,41.23456790123456,0)" xlink:href="#av"/></g><path fill="#3a414a" d="M166-85c3 67-44 102-111 85l1 64 29 4v9H6v-9l21-4v-217c-7-3-22 1-19-12h46l1 9c11-8 26-14 45-14 47 2 64 36 66 85zM56-13c53 14 83-14 78-72 7-53-33-79-78-60v132" id="ax"/><g id="f"><use transform="matrix(0.06172839506172839,0,0,0.06172839506172839,0,0)" xlink:href="#ac"/><use transform="matrix(0.06172839506172839,0,0,0.06172839506172839,7.345679012345679,0)" xlink:href="#ad"/><use transform="matrix(0.06172839506172839,0,0,0.06172839506172839,17.160493827160494,0)" xlink:href="#ae"/><use transform="matrix(0.06172839506172839,0,0,0.06172839506172839,25.80246913580247,0)" xlink:href="#ah"/><use transform="matrix(0.06172839506172839,0,0,0.06172839506172839,31.975308641975307,0)" xlink:href="#ax"/></g><path fill="#3a414a" d="M53-14c58 12 82-15 82-73 0-52-35-77-82-58v131zM89 4C64 4 42-2 24-9v-229l-24-4v-8h53l-1 94c48-33 114-4 114 69 0 57-23 91-77 91" id="ay"/><path fill="#3a414a" d="M240-154L185 4h-14l-41-109L90 4H77L20-153c-7-3-23 1-20-12h79v8l-27 4L91-41l40-108h14l40 109 38-113-28-4v-8h63v8" id="az"/><g id="g"><use transform="matrix(0.06172839506172839,0,0,0.06172839506172839,0,0)" xlink:href="#ay"/><use transform="matrix(0.06172839506172839,0,0,0.06172839506172839,11.11111111111111,0)" xlink:href="#az"/><use transform="matrix(0.06172839506172839,0,0,0.06172839506172839,27.098765432098766,0)" xlink:href="#ad"/></g><path fill="#3a414a" d="M126-118c4-37-42-32-68-25v131l24 4v8H8C5-13 21-9 28-12v-141c-7-3-23 1-20-12h48l1 13c22-15 77-30 92 2 32-22 104-36 104 29v109c8 3 24-2 21 12h-75v-8l25-4v-106c3-39-45-31-72-24 7 37 1 88 3 130l25 4v8h-78v-8l24-4v-106" id="aA"/><g id="h"><use transform="matrix(0.06172839506172839,0,0,0.06172839506172839,0,0)" xlink:href="#aA"/><use transform="matrix(0.06172839506172839,0,0,0.06172839506172839,17.28395061728395,0)" xlink:href="#aq"/><use transform="matrix(0.06172839506172839,0,0,0.06172839506172839,27.098765432098766,0)" xlink:href="#aA"/></g><path fill="#3a414a" d="M52-115c0 90 69 126 140 93v-67l-30-5v-9h87v9l-23 5v77c-27 8-56 16-90 16C59 2 15-37 15-115c-1-82 41-123 122-123 31 0 59 4 83 10v51h-12l-5-29c-15-12-38-18-65-18-66-1-86 42-86 109" id="aB"/><path fill="#3a414a" d="M238-236v10l-27 4-81 79L231-14l25 5v9h-57l-93-119-31 25v80l33 5v9H10v-9l31-5v-208l-31-4v-10h95v10l-30 4v111l112-111-23-4v-10h74" id="aC"/><g id="i"><use transform="matrix(0.06172839506172839,0,0,0.06172839506172839,0,0)" xlink:href="#aB"/><use transform="matrix(0.06172839506172839,0,0,0.06172839506172839,15.987654320987653,0)" xlink:href="#av"/><use transform="matrix(0.06172839506172839,0,0,0.06172839506172839,29.50617283950617,0)" xlink:href="#aw"/><use transform="matrix(0.06172839506172839,0,0,0.06172839506172839,43.02469135802469,0)" xlink:href="#aC"/></g><path fill="#3a414a" d="M152 0h-7L59-203v189l32 5v9H10v-9l31-5v-208l-31-4v-10h72l76 180 84-180h68v10l-31 4v208l31 5v9h-96v-9l32-5v-189" id="aD"/><path fill="#3a414a" d="M60-80l68-73c-7-3-20 0-17-12h58c3 13-13 9-20 12l-47 48 60 93c7 3 21-1 18 12h-68c-3-12 9-9 15-12L82-83 60-60v48c7 3 21-1 18 12H10v-8l21-4v-226l-24-4v-8h53v170" id="aE"/><path fill="#3a414a" d="M65-12l28 4v8H7v-8l28-4v-226l-28-4v-8h58v238" id="aF"/><g id="j"><use transform="matrix(0.06172839506172839,0,0,0.06172839506172839,0,0)" xlink:href="#aD"/><use transform="matrix(0.06172839506172839,0,0,0.06172839506172839,19.753086419753085,0)" xlink:href="#ad"/><use transform="matrix(0.06172839506172839,0,0,0.06172839506172839,29.5679012345679,0)" xlink:href="#ak"/><use transform="matrix(0.06172839506172839,0,0,0.06172839506172839,36.913580246913575,0)" xlink:href="#aE"/><use transform="matrix(0.06172839506172839,0,0,0.06172839506172839,48.02469135802468,0)" xlink:href="#au"/><use transform="matrix(0.06172839506172839,0,0,0.06172839506172839,64.01234567901234,0)" xlink:href="#ar"/><use transform="matrix(0.06172839506172839,0,0,0.06172839506172839,75.12345679012346,0)" xlink:href="#ax"/><use transform="matrix(0.06172839506172839,0,0,0.06172839506172839,86.23456790123457,0)" xlink:href="#aF"/><use transform="matrix(0.06172839506172839,0,0,0.06172839506172839,92.4074074074074,0)" xlink:href="#aj"/><use transform="matrix(0.06172839506172839,0,0,0.06172839506172839,98.58024691358024,0)" xlink:href="#as"/><use transform="matrix(0.06172839506172839,0,0,0.06172839506172839,108.39506172839505,0)" xlink:href="#ad"/><use transform="matrix(0.06172839506172839,0,0,0.06172839506172839,118.20987654320986,0)" xlink:href="#ah"/><use transform="matrix(0.06172839506172839,0,0,0.06172839506172839,124.3827160493827,0)" xlink:href="#aq"/><use transform="matrix(0.06172839506172839,0,0,0.06172839506172839,134.19753086419752,0)" xlink:href="#ae"/><use transform="matrix(0.06172839506172839,0,0,0.06172839506172839,142.8395061728395,0)" xlink:href="#ap"/><use transform="matrix(0.06172839506172839,0,0,0.06172839506172839,155.18518518518516,0)" xlink:href="#ax"/><use transform="matrix(0.06172839506172839,0,0,0.06172839506172839,166.29629629629628,0)" xlink:href="#ad"/><use transform="matrix(0.06172839506172839,0,0,0.06172839506172839,176.1111111111111,0)" xlink:href="#ak"/><use transform="matrix(0.06172839506172839,0,0,0.06172839506172839,183.45679012345676,0)" xlink:href="#aE"/></g><path fill="#3a414a" d="M106-76c4 61-43 93-98 74v-43h11c2 18 5 33 28 33 16 0 25-11 25-33v-177l-30-4v-10h91v10l-27 4v146" id="aG"/><path fill="#3a414a" d="M130-224c-62 0-78 43-78 106 0 64 16 108 78 108s78-45 78-108-16-106-78-106zm0 228C53 4 15-39 15-118c-1-80 37-120 115-120s115 42 115 120C245-39 207 4 130 4" id="aH"/><path fill="#3a414a" d="M203-222l-32-4v-10h81v10l-31 4V0h-17L59-212v198l32 5v9H10v-9l31-5v-208l-31-4v-10h72L203-61v-161" id="aI"/><path fill="#3a414a" d="M111-111v75H92v-75H18v-17h74v-75h19v75h74v17h-74" id="aJ"/><path fill="#3a414a" d="M10 0v-9l31-5v-208l-31-4v-10h95v10l-30 4v93h110v-93l-30-4v-10h94v10l-30 4v208l30 5v9h-94v-9l30-5v-99H75v99l30 5v9H10" id="aK"/><path fill="#3a414a" d="M111-226l-36 4v207c33-1 73 2 101-4l11-49h11l-3 68H10v-9l31-5v-208l-31-4v-10h101v10" id="aL"/><g id="k"><use transform="matrix(0.06172839506172839,0,0,0.06172839506172839,0,0)" xlink:href="#aG"/><use transform="matrix(0.06172839506172839,0,0,0.06172839506172839,8.641975308641975,0)" xlink:href="#aH"/><use transform="matrix(0.06172839506172839,0,0,0.06172839506172839,24.629629629629626,0)" xlink:href="#ap"/><use transform="matrix(0.06172839506172839,0,0,0.06172839506172839,36.9753086419753,0)" xlink:href="#aI"/><use transform="matrix(0.06172839506172839,0,0,0.06172839506172839,52.962962962962955,0)" xlink:href="#aJ"/><use transform="matrix(0.06172839506172839,0,0,0.06172839506172839,65.49382716049382,0)" xlink:href="#aK"/><use transform="matrix(0.06172839506172839,0,0,0.06172839506172839,81.48148148148148,0)" xlink:href="#aw"/><use transform="matrix(0.06172839506172839,0,0,0.06172839506172839,95,0)" xlink:href="#aD"/><use transform="matrix(0.06172839506172839,0,0,0.06172839506172839,114.75308641975309,0)" xlink:href="#aL"/></g><path fill="#3a414a" d="M90-170c52 0 76 32 76 87 0 54-24 87-77 87-51 0-75-34-75-87 0-54 24-87 76-87zM89-10c39 0 46-35 46-73 0-39-7-73-46-73-39 1-44 34-44 73s6 72 44 73" id="aM"/><g id="l"><use transform="matrix(0.06172839506172839,0,0,0.06172839506172839,0,0)" xlink:href="#aL"/><use transform="matrix(0.06172839506172839,0,0,0.06172839506172839,13.518518518518517,0)" xlink:href="#aM"/><use transform="matrix(0.06172839506172839,0,0,0.06172839506172839,24.629629629629626,0)" xlink:href="#az"/></g><path fill="#3a414a" d="M161-154L85 37C75 66 49 86 8 75V39c18-2 6 24 29 21 30-4 38-32 47-58L21-153c-7-3-20 0-17-12h77v8l-26 4 45 116 43-116-26-4v-8h62v8" id="aN"/><g id="m"><use transform="matrix(0.06172839506172839,0,0,0.06172839506172839,0,0)" xlink:href="#af"/><use transform="matrix(0.06172839506172839,0,0,0.06172839506172839,11.11111111111111,0)" xlink:href="#ar"/><use transform="matrix(0.06172839506172839,0,0,0.06172839506172839,22.22222222222222,0)" xlink:href="#ad"/><use transform="matrix(0.06172839506172839,0,0,0.06172839506172839,32.03703703703704,0)" xlink:href="#aF"/><use transform="matrix(0.06172839506172839,0,0,0.06172839506172839,38.20987654320988,0)" xlink:href="#aj"/><use transform="matrix(0.06172839506172839,0,0,0.06172839506172839,44.38271604938272,0)" xlink:href="#ah"/><use transform="matrix(0.06172839506172839,0,0,0.06172839506172839,50.555555555555564,0)" xlink:href="#aN"/></g><g id="n"><use transform="matrix(0.06172839506172839,0,0,0.06172839506172839,0,0)" xlink:href="#Z"/><use transform="matrix(0.06172839506172839,0,0,0.06172839506172839,14.814814814814813,0)" xlink:href="#ad"/><use transform="matrix(0.06172839506172839,0,0,0.06172839506172839,24.629629629629626,0)" xlink:href="#aj"/><use transform="matrix(0.06172839506172839,0,0,0.06172839506172839,30.802469135802465,0)" xlink:href="#ae"/><use transform="matrix(0.06172839506172839,0,0,0.06172839506172839,39.44444444444444,0)" xlink:href="#aq"/></g><path fill="#3a414a" d="M319-222L242 5h-10l-61-162L108 5h-9L21-222l-21-4v-10h90v10l-34 4 56 166 63-163h8l61 163 54-166-37-4v-10h78v10" id="aO"/><path fill="#3a414a" d="M77-14l30 5v9H13v-9l30-5v-208l-30-4v-10h94v10l-30 4v208" id="aP"/><g id="o"><use transform="matrix(0.06172839506172839,0,0,0.06172839506172839,0,0)" xlink:href="#aO"/><use transform="matrix(0.06172839506172839,0,0,0.06172839506172839,18.456790123456788,0)" xlink:href="#av"/><use transform="matrix(0.06172839506172839,0,0,0.06172839506172839,34.44444444444444,0)" xlink:href="#Z"/><use transform="matrix(0.06172839506172839,0,0,0.06172839506172839,49.25925925925925,0)" xlink:href="#aI"/><use transform="matrix(0.06172839506172839,0,0,0.06172839506172839,65.24691358024691,0)" xlink:href="#aP"/><use transform="matrix(0.06172839506172839,0,0,0.06172839506172839,72.5925925925926,0)" xlink:href="#aI"/><use transform="matrix(0.06172839506172839,0,0,0.06172839506172839,88.58024691358025,0)" xlink:href="#aB"/></g><path fill="#333" d="M160-93v75l38 5V0H67v-13l38-5v-74L33-218l-27-5v-13h122v13l-32 5 54 98 52-98-29-5v-13h80v13l-25 5" id="aQ"/><path fill="#333" d="M12-83c0-55 22-85 75-86 52-1 66 33 63 88H64c-1 37 6 64 44 63 14 0 28-4 39-6 3 28-28 25-55 27-57 4-80-31-80-86zm90-17c2-26 0-63-27-48-10 9-11 28-11 48h38" id="aR"/><path fill="#333" d="M102-142c-14-17-68-15-54 18 24 26 83 17 83 72 0 62-72 62-120 47v-45h12c4 23 16 37 43 37 35 0 39-37 9-46-31-9-65-19-64-61 0-52 59-55 108-45v43h-11" id="aS"/><g id="p"><use transform="matrix(0.04938271604938272,0,0,0.04938271604938272,0,0)" xlink:href="#aQ"/><use transform="matrix(0.04938271604938272,0,0,0.04938271604938272,10.814814814814817,0)" xlink:href="#aR"/><use transform="matrix(0.04938271604938272,0,0,0.04938271604938272,18.666666666666668,0)" xlink:href="#aS"/></g><path fill="#3a414a" d="M75-131c50 2 93 3 93-48 0-46-48-41-93-41v89zm0 115c55 4 111 6 111-51 0-53-58-48-111-48v99zm148-52C223 24 102-3 10 0v-9l31-5v-208l-31-4v-10c77 6 193-24 194 56 0 33-20 48-48 54 36 5 67 20 67 58" id="aT"/><g id="q"><use transform="matrix(0.06172839506172839,0,0,0.06172839506172839,0,0)" xlink:href="#aT"/><use transform="matrix(0.06172839506172839,0,0,0.06172839506172839,14.814814814814813,0)" xlink:href="#ad"/><use transform="matrix(0.06172839506172839,0,0,0.06172839506172839,24.629629629629626,0)" xlink:href="#ae"/><use transform="matrix(0.06172839506172839,0,0,0.06172839506172839,33.2716049382716,0)" xlink:href="#aq"/><use transform="matrix(0.06172839506172839,0,0,0.06172839506172839,43.08641975308642,0)" xlink:href="#Z"/><use transform="matrix(0.06172839506172839,0,0,0.06172839506172839,57.90123456790123,0)" xlink:href="#aq"/><use transform="matrix(0.06172839506172839,0,0,0.06172839506172839,67.71604938271604,0)" xlink:href="#as"/><use transform="matrix(0.06172839506172839,0,0,0.06172839506172839,77.53086419753085,0)" xlink:href="#ad"/><use transform="matrix(0.06172839506172839,0,0,0.06172839506172839,87.34567901234566,0)" xlink:href="#aF"/><use transform="matrix(0.06172839506172839,0,0,0.06172839506172839,93.51851851851849,0)" xlink:href="#aj"/><use transform="matrix(0.06172839506172839,0,0,0.06172839506172839,99.69135802469133,0)" xlink:href="#ay"/><use transform="matrix(0.06172839506172839,0,0,0.06172839506172839,110.80246913580244,0)" xlink:href="#ak"/><use transform="matrix(0.06172839506172839,0,0,0.06172839506172839,118.14814814814812,0)" xlink:href="#ad"/><use transform="matrix(0.06172839506172839,0,0,0.06172839506172839,127.96296296296293,0)" xlink:href="#ah"/><use transform="matrix(0.06172839506172839,0,0,0.06172839506172839,134.13580246913577,0)" xlink:href="#aM"/><use transform="matrix(0.06172839506172839,0,0,0.06172839506172839,145.24691358024688,0)" xlink:href="#ak"/></g><path fill="#3a414a" d="M130-224c-62 0-78 43-78 106 0 64 16 108 78 108s78-44 78-108c0-63-16-106-78-106zM145 3C61 9 15-34 15-118c0-80 37-120 115-120 77 0 115 42 115 120 1 59-21 95-62 112 19 19 30 53 71 46v12c-30 12-67 2-84-19" id="aU"/><g id="r"><use transform="matrix(0.06172839506172839,0,0,0.06172839506172839,0,0)" xlink:href="#av"/><use transform="matrix(0.06172839506172839,0,0,0.06172839506172839,15.987654320987653,0)" xlink:href="#ax"/><use transform="matrix(0.06172839506172839,0,0,0.06172839506172839,27.098765432098766,0)" xlink:href="#ax"/><use transform="matrix(0.06172839506172839,0,0,0.06172839506172839,38.20987654320987,0)" xlink:href="#aF"/><use transform="matrix(0.06172839506172839,0,0,0.06172839506172839,44.382716049382715,0)" xlink:href="#aN"/><use transform="matrix(0.06172839506172839,0,0,0.06172839506172839,55.49382716049382,0)" xlink:href="#aT"/><use transform="matrix(0.06172839506172839,0,0,0.06172839506172839,70.30864197530863,0)" xlink:href="#aU"/><use transform="matrix(0.06172839506172839,0,0,0.06172839506172839,86.29629629629629,0)" xlink:href="#ap"/><use transform="matrix(0.06172839506172839,0,0,0.06172839506172839,98.64197530864197,0)" xlink:href="#Z"/></g><path fill="#3a414a" d="M52-115c0 93 80 130 150 87l7-35h11l-1 55c-23 7-52 12-83 12C60 4 19-37 15-115c-5-113 97-141 201-114l1 51h-12l-5-30c-15-9-39-16-62-16-66 0-86 41-86 109" id="aV"/><g id="s"><use transform="matrix(0.06172839506172839,0,0,0.06172839506172839,0,0)" xlink:href="#aV"/><use transform="matrix(0.06172839506172839,0,0,0.06172839506172839,14.814814814814813,0)" xlink:href="#aF"/><use transform="matrix(0.06172839506172839,0,0,0.06172839506172839,20.98765432098765,0)" xlink:href="#aq"/><use transform="matrix(0.06172839506172839,0,0,0.06172839506172839,30.80246913580247,0)" xlink:href="#ad"/><use transform="matrix(0.06172839506172839,0,0,0.06172839506172839,40.617283950617285,0)" xlink:href="#an"/></g><g id="t"><use transform="matrix(0.06172839506172839,0,0,0.06172839506172839,0,0)" xlink:href="#aT"/><use transform="matrix(0.06172839506172839,0,0,0.06172839506172839,14.814814814814813,0)" xlink:href="#av"/><use transform="matrix(0.06172839506172839,0,0,0.06172839506172839,30.80246913580247,0)" xlink:href="#aD"/><use transform="matrix(0.06172839506172839,0,0,0.06172839506172839,50.55555555555556,0)" xlink:href="#ae"/></g><g id="u"><use transform="matrix(0.06172839506172839,0,0,0.06172839506172839,0,0)" xlink:href="#aK"/><use transform="matrix(0.06172839506172839,0,0,0.06172839506172839,15.987654320987653,0)" xlink:href="#ad"/><use transform="matrix(0.06172839506172839,0,0,0.06172839506172839,25.80246913580247,0)" xlink:href="#ax"/><use transform="matrix(0.06172839506172839,0,0,0.06172839506172839,36.91358024691358,0)" xlink:href="#aF"/><use transform="matrix(0.06172839506172839,0,0,0.06172839506172839,43.086419753086425,0)" xlink:href="#aM"/><use transform="matrix(0.06172839506172839,0,0,0.06172839506172839,54.19753086419753,0)" xlink:href="#ah"/><use transform="matrix(0.06172839506172839,0,0,0.06172839506172839,60.370370370370374,0)" xlink:href="#aN"/><use transform="matrix(0.06172839506172839,0,0,0.06172839506172839,71.48148148148148,0)" xlink:href="#ax"/><use transform="matrix(0.06172839506172839,0,0,0.06172839506172839,82.5925925925926,0)" xlink:href="#aq"/><use transform="matrix(0.06172839506172839,0,0,0.06172839506172839,92.4074074074074,0)" xlink:href="#aV"/><use transform="matrix(0.06172839506172839,0,0,0.06172839506172839,107.22222222222221,0)" xlink:href="#ad"/><use transform="matrix(0.06172839506172839,0,0,0.06172839506172839,117.03703703703702,0)" xlink:href="#aF"/><use transform="matrix(0.06172839506172839,0,0,0.06172839506172839,123.20987654320986,0)" xlink:href="#aF"/><use transform="matrix(0.06172839506172839,0,0,0.06172839506172839,129.3827160493827,0)" xlink:href="#aq"/><use transform="matrix(0.06172839506172839,0,0,0.06172839506172839,139.19753086419752,0)" xlink:href="#ak"/></g><path fill="#3a414a" d="M19-231c61-19 146-3 123 76-8 29-32 42-62 48l-3 45H63l-4-58c33-4 57-15 54-56 6-47-42-58-77-39l-6 29H19v-45zM72-37c14 0 21 9 21 21S84 5 72 5 50-2 51-16c0-13 8-21 21-21" id="aW"/><g id="v"><use transform="matrix(0.06172839506172839,0,0,0.06172839506172839,0,0)" xlink:href="#aD"/><use transform="matrix(0.06172839506172839,0,0,0.06172839506172839,19.753086419753085,0)" xlink:href="#ar"/><use transform="matrix(0.06172839506172839,0,0,0.06172839506172839,30.864197530864196,0)" xlink:href="#aF"/><use transform="matrix(0.06172839506172839,0,0,0.06172839506172839,37.03703703703704,0)" xlink:href="#ah"/><use transform="matrix(0.06172839506172839,0,0,0.06172839506172839,43.20987654320988,0)" xlink:href="#aj"/><use transform="matrix(0.06172839506172839,0,0,0.06172839506172839,49.38271604938272,0)" xlink:href="#al"/><use transform="matrix(0.06172839506172839,0,0,0.06172839506172839,56.7283950617284,0)" xlink:href="#ae"/><use transform="matrix(0.06172839506172839,0,0,0.06172839506172839,65.37037037037038,0)" xlink:href="#ad"/><use transform="matrix(0.06172839506172839,0,0,0.06172839506172839,75.18518518518519,0)" xlink:href="#aA"/><use transform="matrix(0.06172839506172839,0,0,0.06172839506172839,92.46913580246914,0)" xlink:href="#ax"/><use transform="matrix(0.06172839506172839,0,0,0.06172839506172839,103.58024691358025,0)" xlink:href="#aF"/><use transform="matrix(0.06172839506172839,0,0,0.06172839506172839,109.75308641975309,0)" xlink:href="#aq"/><use transform="matrix(0.06172839506172839,0,0,0.06172839506172839,119.5679012345679,0)" xlink:href="#aW"/></g><path fill="#3a414a" d="M256-236v10l-26 4L135 5h-9L31-222l-27-4v-10h95v10l-31 4 71 174 71-174-31-4v-10h77" id="aX"/><path fill="#3a414a" d="M75-106v92l39 5v9H13v-9l28-5v-208l-31-4v-10h177v57h-11l-6-38c-28-4-63-3-95-3v98h69l5-28h11v73h-11l-5-29H75" id="aY"/><g id="w"><use transform="matrix(0.06172839506172839,0,0,0.06172839506172839,0,0)" xlink:href="#aB"/><use transform="matrix(0.06172839506172839,0,0,0.06172839506172839,15.987654320987653,0)" xlink:href="#aX"/><use transform="matrix(0.06172839506172839,0,0,0.06172839506172839,31.975308641975307,0)" xlink:href="#aV"/><use transform="matrix(0.06172839506172839,0,0,0.06172839506172839,46.79012345679012,0)" xlink:href="#aY"/><use transform="matrix(0.06172839506172839,0,0,0.06172839506172839,59.1358024691358,0)" xlink:href="#ae"/></g><path fill="#333" d="M203-218l-32-5v-13h84v13l-30 5V0h-21L59-189v171l32 5V0H7v-13l30-5v-200l-30-5v-13h81L203-85v-133" id="aZ"/><path fill="#333" d="M90-170c54-1 76 32 76 87 1 56-23 87-77 87-53 0-75-32-75-87s23-86 76-87zM89-14c28-2 26-38 26-69s3-69-26-69c-27 0-24 39-24 69s-3 66 24 69" id="ba"/><g id="x"><use transform="matrix(0.04938271604938272,0,0,0.04938271604938272,0,0)" xlink:href="#aZ"/><use transform="matrix(0.04938271604938272,0,0,0.04938271604938272,12.790123456790125,0)" xlink:href="#ba"/></g><g id="y"><use transform="matrix(0.06172839506172839,0,0,0.06172839506172839,0,0)" xlink:href="#aO"/><use transform="matrix(0.06172839506172839,0,0,0.06172839506172839,19.1358024691358,0)" xlink:href="#ad"/><use transform="matrix(0.06172839506172839,0,0,0.06172839506172839,28.950617283950614,0)" xlink:href="#aj"/><use transform="matrix(0.06172839506172839,0,0,0.06172839506172839,35.123456790123456,0)" xlink:href="#ah"/></g><g id="z"><use transform="matrix(0.06172839506172839,0,0,0.06172839506172839,0,0)" xlink:href="#ad"/><use transform="matrix(0.06172839506172839,0,0,0.06172839506172839,9.814814814814815,0)" xlink:href="#aF"/><use transform="matrix(0.06172839506172839,0,0,0.06172839506172839,15.987654320987653,0)" xlink:href="#aF"/></g><g id="A"><use transform="matrix(0.06172839506172839,0,0,0.06172839506172839,0,0)" xlink:href="#aB"/><use transform="matrix(0.06172839506172839,0,0,0.06172839506172839,15.987654320987653,0)" xlink:href="#aX"/><use transform="matrix(0.06172839506172839,0,0,0.06172839506172839,31.975308641975307,0)" xlink:href="#aV"/><use transform="matrix(0.06172839506172839,0,0,0.06172839506172839,46.79012345679012,0)" xlink:href="#aY"/><use transform="matrix(0.06172839506172839,0,0,0.06172839506172839,59.1358024691358,0)" xlink:href="#ae"/></g><g id="B"><use transform="matrix(0.06172839506172839,0,0,0.06172839506172839,0,0)" xlink:href="#aV"/><use transform="matrix(0.06172839506172839,0,0,0.06172839506172839,14.814814814814813,0)" xlink:href="#aM"/><use transform="matrix(0.06172839506172839,0,0,0.06172839506172839,25.925925925925924,0)" xlink:href="#aA"/><use transform="matrix(0.06172839506172839,0,0,0.06172839506172839,43.20987654320987,0)" xlink:href="#ay"/><use transform="matrix(0.06172839506172839,0,0,0.06172839506172839,54.32098765432099,0)" xlink:href="#aj"/><use transform="matrix(0.06172839506172839,0,0,0.06172839506172839,60.49382716049383,0)" xlink:href="#an"/><use transform="matrix(0.06172839506172839,0,0,0.06172839506172839,71.60493827160494,0)" xlink:href="#aq"/><use transform="matrix(0.06172839506172839,0,0,0.06172839506172839,81.41975308641975,0)" xlink:href="#aB"/><use transform="matrix(0.06172839506172839,0,0,0.06172839506172839,97.4074074074074,0)" xlink:href="#aX"/><use transform="matrix(0.06172839506172839,0,0,0.06172839506172839,113.39506172839506,0)" xlink:href="#aV"/><use transform="matrix(0.06172839506172839,0,0,0.06172839506172839,128.20987654320987,0)" xlink:href="#aY"/><use transform="matrix(0.06172839506172839,0,0,0.06172839506172839,140.55555555555554,0)" xlink:href="#ae"/></g><g id="C"><use transform="matrix(0.06172839506172839,0,0,0.06172839506172839,0,0)" xlink:href="#aB"/><use transform="matrix(0.06172839506172839,0,0,0.06172839506172839,15.987654320987653,0)" xlink:href="#aq"/><use transform="matrix(0.06172839506172839,0,0,0.06172839506172839,25.80246913580247,0)" xlink:href="#an"/><use transform="matrix(0.06172839506172839,0,0,0.06172839506172839,36.91358024691358,0)" xlink:href="#aM"/><use transform="matrix(0.06172839506172839,0,0,0.06172839506172839,48.0246913580247,0)" xlink:href="#ah"/><use transform="matrix(0.06172839506172839,0,0,0.06172839506172839,54.19753086419754,0)" xlink:href="#aN"/><use transform="matrix(0.06172839506172839,0,0,0.06172839506172839,65.30864197530865,0)" xlink:href="#ax"/><use transform="matrix(0.06172839506172839,0,0,0.06172839506172839,76.41975308641976,0)" xlink:href="#aq"/><use transform="matrix(0.06172839506172839,0,0,0.06172839506172839,86.23456790123457,0)" xlink:href="#aB"/><use transform="matrix(0.06172839506172839,0,0,0.06172839506172839,102.22222222222223,0)" xlink:href="#aX"/><use transform="matrix(0.06172839506172839,0,0,0.06172839506172839,118.20987654320989,0)" xlink:href="#aV"/><use transform="matrix(0.06172839506172839,0,0,0.06172839506172839,133.0246913580247,0)" xlink:href="#aY"/><use transform="matrix(0.06172839506172839,0,0,0.06172839506172839,145.37037037037038,0)" xlink:href="#ae"/></g><path fill="#3a414a" d="M126-119c3-38-42-31-69-25v132l23 4v8H7v-8l21-4v-226l-24-4v-8h53l-1 98c31-22 99-31 99 31v109c7 3 23-1 20 12h-71v-8l22-4v-107" id="bb"/><g id="E"><use transform="matrix(0.06172839506172839,0,0,0.06172839506172839,0,0)" xlink:href="#aO"/><use transform="matrix(0.06172839506172839,0,0,0.06172839506172839,20.061728395061728,0)" xlink:href="#aj"/><use transform="matrix(0.06172839506172839,0,0,0.06172839506172839,26.234567901234566,0)" xlink:href="#ah"/><use transform="matrix(0.06172839506172839,0,0,0.06172839506172839,32.407407407407405,0)" xlink:href="#bb"/></g><path fill="#3a414a" d="M113-227c0 12 13 12 13 25 0 7-5 16-12 16-14 1-21-10-21-22 0-44 32-65 73-65 43 0 72 22 72 66 0 61-67 83-66 150h-11c-7-57 46-92 52-150 7-66-100-76-100-20zM187-7c0 12-10 21-22 21s-21-9-21-21 9-21 21-21 22 9 22 21" id="bc"/><g id="F"><use transform="matrix(0.06172839506172839,0,0,0.06172839506172839,0,0)" xlink:href="#aw"/><use transform="matrix(0.06172839506172839,0,0,0.06172839506172839,12.716049382716047,0)" xlink:href="#ak"/><use transform="matrix(0.06172839506172839,0,0,0.06172839506172839,20.061728395061728,0)" xlink:href="#aj"/><use transform="matrix(0.06172839506172839,0,0,0.06172839506172839,26.234567901234566,0)" xlink:href="#aM"/><use transform="matrix(0.06172839506172839,0,0,0.06172839506172839,37.34567901234568,0)" xlink:href="#aP"/><use transform="matrix(0.06172839506172839,0,0,0.06172839506172839,44.691358024691354,0)" xlink:href="#au"/><use transform="matrix(0.06172839506172839,0,0,0.06172839506172839,60.679012345679006,0)" xlink:href="#bc"/></g><path fill="#3a414a" d="M134-16c44-1 70-21 70-64v-142l-32-4v-10h80v10l-30 4v141c0 57-33 84-91 85-58 0-93-26-93-82v-144l-30-4v-10h94v10l-30 4c7 82-31 209 62 206" id="bd"/><g id="G"><use transform="matrix(0.06172839506172839,0,0,0.06172839506172839,0,0)" xlink:href="#aH"/><use transform="matrix(0.06172839506172839,0,0,0.06172839506172839,15.987654320987653,0)" xlink:href="#bd"/><use transform="matrix(0.06172839506172839,0,0,0.06172839506172839,31.975308641975307,0)" xlink:href="#aw"/><use transform="matrix(0.06172839506172839,0,0,0.06172839506172839,45.49382716049382,0)" xlink:href="#ai"/><use transform="matrix(0.06172839506172839,0,0,0.06172839506172839,57.8395061728395,0)" xlink:href="#bd"/><use transform="matrix(0.06172839506172839,0,0,0.06172839506172839,73.82716049382715,0)" xlink:href="#aw"/></g><path fill="#3a414a" d="M164-154L98 4H85L17-153c-7-3-20 0-17-12h77v8l-26 4L99-38l46-115-26-4v-8h61v8" id="be"/><g id="H"><use transform="matrix(0.06172839506172839,0,0,0.06172839506172839,0,0)" xlink:href="#au"/><use transform="matrix(0.06172839506172839,0,0,0.06172839506172839,15.987654320987653,0)" xlink:href="#aq"/><use transform="matrix(0.06172839506172839,0,0,0.06172839506172839,25.80246913580247,0)" xlink:href="#an"/><use transform="matrix(0.06172839506172839,0,0,0.06172839506172839,36.91358024691358,0)" xlink:href="#aM"/><use transform="matrix(0.06172839506172839,0,0,0.06172839506172839,48.0246913580247,0)" xlink:href="#be"/><use transform="matrix(0.06172839506172839,0,0,0.06172839506172839,59.13580246913581,0)" xlink:href="#aM"/><use transform="matrix(0.06172839506172839,0,0,0.06172839506172839,70.24691358024693,0)" xlink:href="#aV"/><use transform="matrix(0.06172839506172839,0,0,0.06172839506172839,85.06172839506173,0)" xlink:href="#aI"/><use transform="matrix(0.06172839506172839,0,0,0.06172839506172839,101.0493827160494,0)" xlink:href="#aI"/></g><g id="I"><use transform="matrix(0.06172839506172839,0,0,0.06172839506172839,0,0)" xlink:href="#aY"/><use transform="matrix(0.06172839506172839,0,0,0.06172839506172839,12.345679012345679,0)" xlink:href="#ad"/><use transform="matrix(0.06172839506172839,0,0,0.06172839506172839,22.160493827160494,0)" xlink:href="#aA"/><use transform="matrix(0.06172839506172839,0,0,0.06172839506172839,39.44444444444444,0)" xlink:href="#aj"/><use transform="matrix(0.06172839506172839,0,0,0.06172839506172839,45.617283950617285,0)" xlink:href="#aF"/><use transform="matrix(0.06172839506172839,0,0,0.06172839506172839,51.79012345679013,0)" xlink:href="#aN"/></g><g id="J"><use transform="matrix(0.06172839506172839,0,0,0.06172839506172839,0,0)" xlink:href="#as"/><use transform="matrix(0.06172839506172839,0,0,0.06172839506172839,9.814814814814815,0)" xlink:href="#aM"/><use transform="matrix(0.06172839506172839,0,0,0.06172839506172839,20.925925925925924,0)" xlink:href="#al"/><use transform="matrix(0.06172839506172839,0,0,0.06172839506172839,28.2716049382716,0)" xlink:href="#ae"/><use transform="matrix(0.06172839506172839,0,0,0.06172839506172839,36.913580246913575,0)" xlink:href="#aq"/><use transform="matrix(0.06172839506172839,0,0,0.06172839506172839,46.72839506172839,0)" xlink:href="#at"/><use transform="matrix(0.06172839506172839,0,0,0.06172839506172839,57.839506172839506,0)" xlink:href="#ak"/><use transform="matrix(0.06172839506172839,0,0,0.06172839506172839,65.18518518518519,0)" xlink:href="#aq"/><use transform="matrix(0.06172839506172839,0,0,0.06172839506172839,75,0)" xlink:href="#at"/><use transform="matrix(0.06172839506172839,0,0,0.06172839506172839,86.11111111111111,0)" xlink:href="#ad"/><use transform="matrix(0.06172839506172839,0,0,0.06172839506172839,95.92592592592592,0)" xlink:href="#ah"/><use transform="matrix(0.06172839506172839,0,0,0.06172839506172839,102.09876543209876,0)" xlink:href="#aj"/><use transform="matrix(0.06172839506172839,0,0,0.06172839506172839,108.2716049382716,0)" xlink:href="#aM"/><use transform="matrix(0.06172839506172839,0,0,0.06172839506172839,119.38271604938271,0)" xlink:href="#an"/></g><g id="K"><use transform="matrix(0.06172839506172839,0,0,0.06172839506172839,0,0)" xlink:href="#aT"/><use transform="matrix(0.06172839506172839,0,0,0.06172839506172839,14.814814814814813,0)" xlink:href="#av"/><use transform="matrix(0.06172839506172839,0,0,0.06172839506172839,30.80246913580247,0)" xlink:href="#aD"/><use transform="matrix(0.06172839506172839,0,0,0.06172839506172839,50.55555555555556,0)" xlink:href="#ap"/><use transform="matrix(0.06172839506172839,0,0,0.06172839506172839,62.901234567901234,0)" xlink:href="#aw"/></g><g id="L"><use transform="matrix(0.06172839506172839,0,0,0.06172839506172839,0,0)" xlink:href="#au"/><use transform="matrix(0.06172839506172839,0,0,0.06172839506172839,15.987654320987653,0)" xlink:href="#aq"/><use transform="matrix(0.06172839506172839,0,0,0.06172839506172839,25.80246913580247,0)" xlink:href="#ax"/><use transform="matrix(0.06172839506172839,0,0,0.06172839506172839,36.91358024691358,0)" xlink:href="#ah"/><use transform="matrix(0.06172839506172839,0,0,0.06172839506172839,43.086419753086425,0)" xlink:href="#bb"/></g><g id="M"><use transform="matrix(0.06172839506172839,0,0,0.06172839506172839,0,0)" xlink:href="#ap"/><use transform="matrix(0.06172839506172839,0,0,0.06172839506172839,12.345679012345679,0)" xlink:href="#ah"/><use transform="matrix(0.06172839506172839,0,0,0.06172839506172839,18.51851851851852,0)" xlink:href="#ad"/><use transform="matrix(0.06172839506172839,0,0,0.06172839506172839,28.333333333333336,0)" xlink:href="#ah"/></g><g id="N"><use transform="matrix(0.06172839506172839,0,0,0.06172839506172839,0,0)" xlink:href="#aD"/><use transform="matrix(0.06172839506172839,0,0,0.06172839506172839,19.753086419753085,0)" xlink:href="#aq"/><use transform="matrix(0.06172839506172839,0,0,0.06172839506172839,29.5679012345679,0)" xlink:href="#ak"/><use transform="matrix(0.06172839506172839,0,0,0.06172839506172839,36.48148148148148,0)" xlink:href="#at"/><use transform="matrix(0.06172839506172839,0,0,0.06172839506172839,47.592592592592595,0)" xlink:href="#aq"/></g><g id="O"><use transform="matrix(0.06172839506172839,0,0,0.06172839506172839,0,0)" xlink:href="#aU"/><use transform="matrix(0.06172839506172839,0,0,0.06172839506172839,15.987654320987653,0)" xlink:href="#aV"/></g><g id="P"><use transform="matrix(0.06172839506172839,0,0,0.06172839506172839,0,0)" xlink:href="#aj"/><use transform="matrix(0.06172839506172839,0,0,0.06172839506172839,6.172839506172839,0)" xlink:href="#an"/><use transform="matrix(0.06172839506172839,0,0,0.06172839506172839,17.28395061728395,0)" xlink:href="#ac"/><use transform="matrix(0.06172839506172839,0,0,0.06172839506172839,24.629629629629626,0)" xlink:href="#aM"/></g><g id="Q"><use transform="matrix(0.06172839506172839,0,0,0.06172839506172839,0,0)" xlink:href="#au"/><use transform="matrix(0.06172839506172839,0,0,0.06172839506172839,15.987654320987653,0)" xlink:href="#aq"/><use transform="matrix(0.06172839506172839,0,0,0.06172839506172839,25.80246913580247,0)" xlink:href="#an"/><use transform="matrix(0.06172839506172839,0,0,0.06172839506172839,36.91358024691358,0)" xlink:href="#aM"/><use transform="matrix(0.06172839506172839,0,0,0.06172839506172839,48.0246913580247,0)" xlink:href="#be"/><use transform="matrix(0.06172839506172839,0,0,0.06172839506172839,59.13580246913581,0)" xlink:href="#aM"/></g><g id="R"><use transform="matrix(0.06172839506172839,0,0,0.06172839506172839,0,0)" xlink:href="#be"/><use transform="matrix(0.06172839506172839,0,0,0.06172839506172839,11.11111111111111,0)" xlink:href="#ad"/><use transform="matrix(0.06172839506172839,0,0,0.06172839506172839,20.925925925925924,0)" xlink:href="#ak"/><use transform="matrix(0.06172839506172839,0,0,0.06172839506172839,28.2716049382716,0)" xlink:href="#aj"/><use transform="matrix(0.06172839506172839,0,0,0.06172839506172839,34.44444444444444,0)" xlink:href="#ad"/><use transform="matrix(0.06172839506172839,0,0,0.06172839506172839,44.25925925925926,0)" xlink:href="#an"/><use transform="matrix(0.06172839506172839,0,0,0.06172839506172839,55.37037037037037,0)" xlink:href="#ah"/><use transform="matrix(0.06172839506172839,0,0,0.06172839506172839,61.54320987654321,0)" xlink:href="#ae"/></g><g id="S"><use transform="matrix(0.06172839506172839,0,0,0.06172839506172839,0,0)" xlink:href="#ap"/><use transform="matrix(0.06172839506172839,0,0,0.06172839506172839,12.345679012345679,0)" xlink:href="#aq"/><use transform="matrix(0.06172839506172839,0,0,0.06172839506172839,22.160493827160494,0)" xlink:href="#aF"/><use transform="matrix(0.06172839506172839,0,0,0.06172839506172839,28.333333333333332,0)" xlink:href="#aq"/><use transform="matrix(0.06172839506172839,0,0,0.06172839506172839,38.148148148148145,0)" xlink:href="#as"/><use transform="matrix(0.06172839506172839,0,0,0.06172839506172839,47.96296296296296,0)" xlink:href="#ah"/><use transform="matrix(0.06172839506172839,0,0,0.06172839506172839,54.135802469135804,0)" xlink:href="#aX"/><use transform="matrix(0.06172839506172839,0,0,0.06172839506172839,67.65432098765433,0)" xlink:href="#ad"/><use transform="matrix(0.06172839506172839,0,0,0.06172839506172839,77.46913580246914,0)" xlink:href="#ak"/><use transform="matrix(0.06172839506172839,0,0,0.06172839506172839,84.81481481481482,0)" xlink:href="#aj"/><use transform="matrix(0.06172839506172839,0,0,0.06172839506172839,90.98765432098766,0)" xlink:href="#ad"/><use transform="matrix(0.06172839506172839,0,0,0.06172839506172839,100.80246913580247,0)" xlink:href="#an"/><use transform="matrix(0.06172839506172839,0,0,0.06172839506172839,111.91358024691358,0)" xlink:href="#ah"/><use transform="matrix(0.06172839506172839,0,0,0.06172839506172839,118.08641975308642,0)" xlink:href="#ae"/></g><g id="T"><use transform="matrix(0.06172839506172839,0,0,0.06172839506172839,0,0)" xlink:href="#ap"/><use transform="matrix(0.06172839506172839,0,0,0.06172839506172839,12.345679012345679,0)" xlink:href="#aI"/><use transform="matrix(0.06172839506172839,0,0,0.06172839506172839,28.333333333333332,0)" xlink:href="#ai"/></g><g id="U"><use transform="matrix(0.06172839506172839,0,0,0.06172839506172839,0,0)" xlink:href="#aP"/><use transform="matrix(0.06172839506172839,0,0,0.06172839506172839,7.345679012345679,0)" xlink:href="#aI"/><use transform="matrix(0.06172839506172839,0,0,0.06172839506172839,23.333333333333332,0)" xlink:href="#au"/><use transform="matrix(0.06172839506172839,0,0,0.06172839506172839,39.32098765432099,0)" xlink:href="#am"/><use transform="matrix(0.06172839506172839,0,0,0.06172839506172839,52.839506172839506,0)" xlink:href="#aL"/></g><g id="V"><use transform="matrix(0.06172839506172839,0,0,0.06172839506172839,0,0)" xlink:href="#aX"/><use transform="matrix(0.06172839506172839,0,0,0.06172839506172839,13.518518518518517,0)" xlink:href="#ad"/><use transform="matrix(0.06172839506172839,0,0,0.06172839506172839,23.333333333333332,0)" xlink:href="#ak"/><use transform="matrix(0.06172839506172839,0,0,0.06172839506172839,30.679012345679013,0)" xlink:href="#aj"/><use transform="matrix(0.06172839506172839,0,0,0.06172839506172839,36.851851851851855,0)" xlink:href="#ad"/><use transform="matrix(0.06172839506172839,0,0,0.06172839506172839,46.66666666666667,0)" xlink:href="#an"/><use transform="matrix(0.06172839506172839,0,0,0.06172839506172839,57.777777777777786,0)" xlink:href="#ah"/><use transform="matrix(0.06172839506172839,0,0,0.06172839506172839,63.95061728395063,0)" xlink:href="#aY"/><use transform="matrix(0.06172839506172839,0,0,0.06172839506172839,76.2962962962963,0)" xlink:href="#aj"/><use transform="matrix(0.06172839506172839,0,0,0.06172839506172839,82.46913580246914,0)" xlink:href="#aF"/><use transform="matrix(0.06172839506172839,0,0,0.06172839506172839,88.64197530864197,0)" xlink:href="#ah"/><use transform="matrix(0.06172839506172839,0,0,0.06172839506172839,94.81481481481481,0)" xlink:href="#ak"/><use transform="matrix(0.06172839506172839,0,0,0.06172839506172839,102.1604938271605,0)" xlink:href="#ad"/><use transform="matrix(0.06172839506172839,0,0,0.06172839506172839,111.9753086419753,0)" xlink:href="#ah"/><use transform="matrix(0.06172839506172839,0,0,0.06172839506172839,118.14814814814814,0)" xlink:href="#aj"/><use transform="matrix(0.06172839506172839,0,0,0.06172839506172839,124.32098765432097,0)" xlink:href="#aM"/><use transform="matrix(0.06172839506172839,0,0,0.06172839506172839,135.43209876543207,0)" xlink:href="#an"/></g><g id="W"><use transform="matrix(0.06172839506172839,0,0,0.06172839506172839,0,0)" xlink:href="#aY"/><use transform="matrix(0.06172839506172839,0,0,0.06172839506172839,12.345679012345679,0)" xlink:href="#aF"/><use transform="matrix(0.06172839506172839,0,0,0.06172839506172839,18.51851851851852,0)" xlink:href="#aj"/><use transform="matrix(0.06172839506172839,0,0,0.06172839506172839,24.691358024691358,0)" xlink:href="#ah"/><use transform="matrix(0.06172839506172839,0,0,0.06172839506172839,30.864197530864196,0)" xlink:href="#aq"/><use transform="matrix(0.06172839506172839,0,0,0.06172839506172839,40.67901234567901,0)" xlink:href="#ak"/><use transform="matrix(0.06172839506172839,0,0,0.06172839506172839,48.02469135802469,0)" xlink:href="#aX"/><use transform="matrix(0.06172839506172839,0,0,0.06172839506172839,61.54320987654321,0)" xlink:href="#ad"/><use transform="matrix(0.06172839506172839,0,0,0.06172839506172839,71.35802469135803,0)" xlink:href="#ak"/></g><path fill="#333" d="M81 5L15-149c-7-2-13-5-11-16h84v11l-20 5 39 91 35-91-19-5v-11h53c2 11-4 13-11 15C134-81 111-5 75 58 65 77 34 83 8 74V32h11c0 24 29 35 43 12 7-11 13-25 19-39" id="bf"/><g id="X"><use transform="matrix(0.04938271604938272,0,0,0.04938271604938272,0,0)" xlink:href="#bf"/><use transform="matrix(0.04938271604938272,0,0,0.04938271604938272,8.88888888888889,0)" xlink:href="#aR"/><use transform="matrix(0.04938271604938272,0,0,0.04938271604938272,16.74074074074074,0)" xlink:href="#aS"/></g><g id="Y"><use transform="matrix(0.06172839506172839,0,0,0.06172839506172839,0,0)" xlink:href="#aw"/><use transform="matrix(0.06172839506172839,0,0,0.06172839506172839,12.716049382716047,0)" xlink:href="#ak"/><use transform="matrix(0.06172839506172839,0,0,0.06172839506172839,20.061728395061728,0)" xlink:href="#aj"/><use transform="matrix(0.06172839506172839,0,0,0.06172839506172839,26.234567901234566,0)" xlink:href="#aM"/><use transform="matrix(0.06172839506172839,0,0,0.06172839506172839,37.34567901234568,0)" xlink:href="#aW"/></g></defs></g></svg>